<?xml version="1.0" encoding="UTF-8"?>
<svg version="1.1" xmlns="http://www.w3.org/2000/svg" width="512" height="512">
<path d="M0 0 C168.96 0 337.92 0 512 0 C512 168.96 512 337.92 512 512 C343.04 512 174.08 512 0 512 C0 343.04 0 174.08 0 0 Z " fill="#C62641" transform="translate(0,0)"/>
<path d="M0 0 C111.87 0 223.74 0 339 0 C339 12.87 339 25.74 339 39 C290.16 39 241.32 39 191 39 C191 51.21 191 63.42 191 76 C196.28 73.36 201.56 70.72 207 68 C224.258339 62.58561914 245.00425175 62.70285738 262 69 C262.90234375 69.30035156 263.8046875 69.60070312 264.734375 69.91015625 C282.31328886 76.21563622 295.66941685 89.58778301 304.3125 105.875 C309.44674459 117.05737322 311.65577679 127.73782175 311.46655273 140.01391602 C311.43745836 142.06543647 311.44603178 144.11437386 311.45898438 146.16601562 C311.42556767 167.51737179 303.9468406 186.75391123 289.0546875 202.10546875 C272.81443398 218.0146103 249.99132128 226.24790339 227.5 226.125 C226.79230469 226.12886719 226.08460938 226.13273438 225.35546875 226.13671875 C212.11250859 226.11250859 212.11250859 226.11250859 210 224 C209.91131701 221.04294679 209.88479704 218.10934944 209.90234375 215.15234375 C209.90446617 213.82270348 209.90446617 213.82270348 209.90663147 212.46620178 C209.91224785 209.62326746 209.92480309 206.78041069 209.9375 203.9375 C209.94251289 202.01497509 209.94707616 200.09244896 209.95117188 198.16992188 C209.96222259 193.44658451 209.97949817 188.72330542 210 184 C210.90395508 184.16081055 211.80791016 184.32162109 212.73925781 184.48730469 C226.63997568 186.67295215 239.690989 185.38012948 251.67578125 177.72265625 C258.78226558 172.45549727 262.25994876 166.29381102 265 158 C265.33 157.01 265.66 156.02 266 155 C266.2570436 151.46292428 266.2314132 147.92043121 266.25 144.375 C266.270625 143.41464844 266.29125 142.45429688 266.3125 141.46484375 C266.37307134 130.30457364 263.0000734 121.47489936 255.37109375 113.2421875 C247.14202598 105.64318756 237.5538588 103.68554463 226.61328125 103.8515625 C218.53025656 104.31068797 212.49860236 106.15657402 206 111 C205.39285156 111.40863281 204.78570312 111.81726563 204.16015625 112.23828125 C197.65476799 117.06394125 193.58233263 125.11805591 192 133 C191.90038165 134.87946886 191.85393519 136.76203618 191.84178162 138.644104 C191.8319928 139.79392761 191.82220398 140.94375122 191.81211853 142.12841797 C191.80636307 143.3857373 191.8006076 144.64305664 191.79467773 145.93847656 C191.78509513 147.27895405 191.77508482 148.61942855 191.76467896 149.9598999 C191.73766525 153.59589152 191.71663658 157.23189606 191.69667697 160.86793232 C191.67479559 164.66895715 191.64741744 168.46994228 191.62062073 172.27093506 C191.57072293 179.46730467 191.5257733 186.66369635 191.48259836 193.86010909 C191.43320109 202.05354252 191.3782922 210.2469361 191.32291877 218.44033098 C191.20914344 235.29351857 191.10302231 252.14674273 191 269 C176.48 269 161.96 269 147 269 C146.67 252.83 146.34 236.66 146 220 C141.71 221.98 137.42 223.96 133 226 C110.78279084 233.4918496 86.98600556 231.11373762 66 221 C45.56821644 209.706796 34.75156757 192.0244158 28.1875 170.3125 C23.24663815 148.90209864 27.49798605 124.49747248 38.81396484 105.78125 C42.25718533 100.61004031 46.54091715 96.29202787 51 92 C51.72960937 91.26265625 52.45921875 90.5253125 53.2109375 89.765625 C61.69029745 81.63300467 72.85248129 75.60552558 84 72 C84.86625 71.70222656 85.7325 71.40445313 86.625 71.09765625 C94.35703878 68.86646953 101.92859738 68.6871693 109.9375 68.625 C111.02812744 68.61114258 112.11875488 68.59728516 113.24243164 68.58300781 C114.28520264 68.58913086 115.32797363 68.59525391 116.40234375 68.6015625 C117.80214478 68.60663818 117.80214478 68.60663818 119.23022461 68.61181641 C122 69 122 69 128 72 C128 84.54 128 97.08 128 110 C125.69 109.67 123.38 109.34 121 109 C107.04915491 108.0523368 95.53525536 110.01274214 84.375 118.8046875 C80.73989704 122.16476622 78.24555575 125.60275417 76 130 C75.58878906 130.77472656 75.17757812 131.54945313 74.75390625 132.34765625 C70.28622477 142.34969748 70.15264739 155.76630103 73.625 166.125 C78.37615813 176.84002445 84.9832689 184.50337506 96 189 C106.57347115 192.25180254 116.92331466 191.88033596 127 187.3125 C137.22717141 181.79784875 142.35233575 173.94299275 146 163 C146.10146875 161.31279774 146.14625533 159.62192527 146.15821838 157.93171692 C146.17287942 156.36376358 146.17287942 156.36376358 146.18783665 154.76413441 C146.1936069 153.61325179 146.19937716 152.46236917 146.20532227 151.27661133 C146.21535499 150.0471387 146.22538771 148.81766607 146.23572445 147.5509367 C146.26194841 144.22369809 146.28395209 140.89648466 146.30391693 137.56920624 C146.3235361 134.44760042 146.34844632 131.32603876 146.3729248 128.20446777 C146.44143742 119.07385022 146.50144856 109.94317049 146.5625 100.8125 C146.706875 80.414375 146.85125 60.01625 147 39 C98.49 39 49.98 39 0 39 C0 26.13 0 13.26 0 0 Z " fill="#FEFDFE" transform="translate(87,122)"/>
</svg>
