<?xml version="1.0" encoding="UTF-8"?>
<svg version="1.1" xmlns="http://www.w3.org/2000/svg" width="512" height="512">
<path d="M0 0 C1.01201477 0.00054382 2.02402954 0.00108765 3.06671143 0.00164795 C19.59887291 0.04238923 35.523992 0.95817716 51.75 4.375 C52.78125 4.58930664 53.8125 4.80361328 54.875 5.02441406 C101.10680927 14.94980561 143.72188765 37.60106665 177.75 70.375 C178.7390332 71.32318604 178.7390332 71.32318604 179.74804688 72.29052734 C189.23630305 81.43497479 197.9762044 90.73234009 205.75 101.375 C206.60806152 102.52605017 207.46613451 103.67709177 208.32421875 104.828125 C214.36236829 113.01930614 219.72095521 121.53304105 224.75 130.375 C225.11448242 131.00680176 225.47896484 131.63860352 225.85449219 132.28955078 C240.78473018 158.37464001 250.26385054 187.71085114 254.75 217.375 C254.92660156 218.49745117 255.10320312 219.61990234 255.28515625 220.77636719 C256.9420586 232.38947743 257.14873513 243.90679945 257.125 255.625 C257.12418427 257.14302216 257.12418427 257.14302216 257.12335205 258.69171143 C257.08261077 275.22387291 256.16682284 291.148992 252.75 307.375 C252.42854004 308.921875 252.42854004 308.921875 252.10058594 310.5 C242.17519439 356.73180927 219.52393335 399.34688765 186.75 433.375 C186.11787598 434.03435547 185.48575195 434.69371094 184.83447266 435.37304688 C175.69002521 444.86130305 166.39265991 453.6012044 155.75 461.375 C154.59894983 462.23306152 153.44790823 463.09113451 152.296875 463.94921875 C144.10569386 469.98736829 135.59195895 475.34595521 126.75 480.375 C126.11819824 480.73948242 125.48639648 481.10396484 124.83544922 481.47949219 C98.75035999 496.40973018 69.41414886 505.88885054 39.75 510.375 C38.62754883 510.55160156 37.50509766 510.72820312 36.34863281 510.91015625 C24.73552257 512.5670586 13.21820055 512.77373513 1.5 512.75 C-0.01802216 512.74918427 -0.01802216 512.74918427 -1.56671143 512.74835205 C-18.09887291 512.70761077 -34.023992 511.79182284 -50.25 508.375 C-51.796875 508.05354004 -51.796875 508.05354004 -53.375 507.72558594 C-99.60680927 497.80019439 -142.22188765 475.14893335 -176.25 442.375 C-176.90935547 441.74287598 -177.56871094 441.11075195 -178.24804688 440.45947266 C-187.73630305 431.31502521 -196.4762044 422.01765991 -204.25 411.375 C-205.10806152 410.22394983 -205.96613451 409.07290823 -206.82421875 407.921875 C-212.86236829 399.73069386 -218.22095521 391.21695895 -223.25 382.375 C-223.61448242 381.74319824 -223.97896484 381.11139648 -224.35449219 380.46044922 C-239.28473018 354.37535999 -248.76385054 325.03914886 -253.25 295.375 C-253.51490234 293.69132324 -253.51490234 293.69132324 -253.78515625 291.97363281 C-255.4420586 280.36052257 -255.64873513 268.84320055 -255.625 257.125 C-255.62445618 256.11298523 -255.62391235 255.10097046 -255.62335205 254.05828857 C-255.58261077 237.52612709 -254.66682284 221.601008 -251.25 205.375 C-251.03569336 204.34375 -250.82138672 203.3125 -250.60058594 202.25 C-240.67519439 156.01819073 -218.02393335 113.40311235 -185.25 79.375 C-184.61787598 78.71564453 -183.98575195 78.05628906 -183.33447266 77.37695312 C-174.19002521 67.88869695 -164.89265991 59.1487956 -154.25 51.375 C-153.09894983 50.51693848 -151.94790823 49.65886549 -150.796875 48.80078125 C-142.60569386 42.76263171 -134.09195895 37.40404479 -125.25 32.375 C-124.61819824 32.01051758 -123.98639648 31.64603516 -123.33544922 31.27050781 C-97.25035999 16.34026982 -67.91414886 6.86114946 -38.25 2.375 C-37.12754883 2.19839844 -36.00509766 2.02179687 -34.84863281 1.83984375 C-23.23552257 0.1829414 -11.71820055 -0.02373513 0 0 Z " fill="#C62641" transform="translate(255.25,-0.375)"/>
<path d="M0 0 C14.19 0 28.38 0 43 0 C43 35.64 43 71.28 43 108 C54.88 107.67 66.76 107.34 79 107 C82.3 102.71 85.6 98.42 89 94 C91.30961378 91.01849858 93.62072162 88.03840648 95.9375 85.0625 C96.52958252 84.30163086 97.12166504 83.54076172 97.73168945 82.75683594 C102.69347195 76.38493287 107.67749917 70.0307643 112.67333984 63.68554688 C114.95086206 60.79191173 117.22524007 57.89580677 119.5 55 C120.4166523 53.83332204 121.33331895 52.66665536 122.25 51.5 C122.70375 50.9225 123.1575 50.345 123.625 49.75 C128.66666667 43.33333333 133.70833333 36.91666667 138.75 30.5 C139.2042334 29.92185547 139.6584668 29.34371094 140.12646484 28.74804688 C141.03813357 27.58780015 141.94991641 26.42764309 142.86181641 25.26757812 C145.23092158 22.25343215 147.59769805 19.23749783 149.9609375 16.21875 C150.69280273 15.28482422 150.69280273 15.28482422 151.43945312 14.33203125 C152.36337693 13.15292849 153.28660993 11.97328392 154.20898438 10.79296875 C154.63244141 10.25285156 155.05589844 9.71273437 155.4921875 9.15625 C155.85683105 8.69025391 156.22147461 8.22425781 156.59716797 7.74414062 C157.06010254 7.16857422 157.52303711 6.59300781 158 6 C158.9751355 4.43548096 158.9751355 4.43548096 159.9699707 2.83935547 C161.707264 0.77826701 162.64615957 0.08059751 165.30041504 -0.52398682 C168.21430093 -0.69528621 171.07063779 -0.67416097 173.98828125 -0.5859375 C175.04661667 -0.57744781 176.10495209 -0.56895813 177.19535828 -0.56021118 C180.56878337 -0.52667946 183.93979999 -0.45139566 187.3125 -0.375 C189.60217897 -0.34490033 191.89189549 -0.31752454 194.18164062 -0.29296875 C199.78857929 -0.22688922 205.39411758 -0.12654233 211 0 C209.20309711 3.77470883 206.85810942 6.87968203 204.25 10.125 C203.25467629 11.37718144 202.25991213 12.6298078 201.265625 13.8828125 C200.73646484 14.54829102 200.20730469 15.21376953 199.66210938 15.89941406 C196.7497146 19.58011979 193.87693755 23.29156166 191 27 C184.59326286 35.24729386 178.14755008 43.46318548 171.68652344 51.66796875 C165.49426825 59.53318704 159.33332254 67.42198104 153.19213867 75.32714844 C149.20856124 80.45270289 145.20667658 85.56330272 141.19018555 90.66308594 C138.61240003 93.93918869 136.04573579 97.22361922 133.48828125 100.515625 C132.57961304 101.68520752 132.57961304 101.68520752 131.65258789 102.87841797 C130.43793659 104.44391124 129.22484982 106.01061982 128.01342773 107.57861328 C125.48970696 110.83805207 122.96253684 114.08156693 120.296875 117.2265625 C119.55953125 118.10054688 118.8221875 118.97453125 118.0625 119.875 C117.43472656 120.59429687 116.80695313 121.31359375 116.16015625 122.0546875 C114.78141128 123.90100281 114.78141128 123.90100281 115.27880859 125.8972168 C116.04762979 128.13887454 116.98406999 129.67878195 118.37890625 131.58984375 C118.87962646 132.28070068 119.38034668 132.97155762 119.89624023 133.68334961 C120.72103882 134.79915405 120.72103882 134.79915405 121.5625 135.9375 C122.13750244 136.72455322 122.71250488 137.51160645 123.30493164 138.32250977 C128.43869047 145.31585908 133.70006575 152.21165757 138.97583008 159.09814453 C144.05898966 165.73874178 149.04576674 172.44423413 153.99194336 179.18725586 C157.63144881 184.14776315 161.29969841 189.08469235 165 194 C169.2908218 199.6997271 173.53026424 205.43498206 177.75 211.1875 C182.82291013 218.09848255 187.97923232 224.94051691 193.1875 231.75 C197.99145158 238.03796747 202.78819331 244.33003991 207.5 250.6875 C207.96301514 251.3052832 208.42603027 251.92306641 208.90307617 252.55957031 C212 256.76602909 212 256.76602909 212 259 C205.1385515 259.48628962 198.28158728 259.81613648 191.40673828 260.04370117 C189.07562451 260.13861518 186.74562326 260.2678279 184.41845703 260.43334961 C165.67657267 261.73185425 165.67657267 261.73185425 159.63537598 257.24298096 C155.36324206 252.78231564 152.27384716 247.68236366 149.30084229 242.29678345 C147.65540703 239.39158233 145.70979754 236.82213534 143.625 234.21875 C143.02042969 233.43048828 142.41585937 232.64222656 141.79296875 231.83007812 C141.20128906 231.06115234 140.60960937 230.29222656 140 229.5 C134.34459703 222.11503204 128.7852703 214.66801745 123.2890625 207.1640625 C118.92722899 201.22328473 114.47941731 195.35249694 110 189.5 C104.23837075 181.97144331 98.55577479 174.39125561 92.95507812 166.7421875 C88.3517087 160.45604982 83.67630339 154.23507119 79 148 C61.18 147.505 61.18 147.505 43 147 C43 183.96 43 220.92 43 259 C28.81 259 14.62 259 0 259 C0 173.53 0 88.06 0 0 Z " fill="#FEFCFC" transform="translate(150,127)"/>
</svg>
