<svg width="110" height="110" viewBox="0 0 110 110" fill="none" xmlns="http://www.w3.org/2000/svg">
<rect width="110" height="110" rx="20" fill="#2E4876"/>
<path d="M18.8 88.1C18.2 88.1 17.5667 87.9 16.9 87.5C16.3 87.1667 16 86.7667 16 86.3C16 85.1667 16.8333 84.4333 18.5 84.1C21.0333 83.5667 22.6667 82.9 23.4 82.1C24.1333 81.3 24.5 79.8667 24.5 77.8V32.4C24.5 30.2667 24.0667 28.7667 23.2 27.9C22.3333 27.0333 20.5667 26.3 17.9 25.7C16.6333 25.3667 16 24.6333 16 23.5C16 23.0333 16.2 22.6667 16.6 22.4C17 22.1333 17.4 22 17.8 22C19.2667 22 20.9 22.0333 22.7 22.1C24.5667 22.1667 26.3667 22.2667 28.1 22.4C29.9 22.4667 31.4667 22.5 32.8 22.5C34.1333 22.5 35.7333 22.4667 37.6 22.4C39.4667 22.3333 41.3667 22.2667 43.3 22.2C45.2333 22.1333 46.9 22.1 48.3 22.1C48.8333 22.1 49.2333 22.2333 49.5 22.5C49.7667 22.7 49.9 23.0667 49.9 23.6C49.9 24.2667 49.7333 24.7333 49.4 25C49.0667 25.2667 48.6 25.5 48 25.7C45.2667 26.5 43.5 27.3333 42.7 28.2C41.9 29.0667 41.5 30.5 41.5 32.5V53.2C41.5 53.7333 41.6 54.1333 41.8 54.4C42.0667 54.6 42.3333 54.7 42.6 54.7C42.9333 54.7 43.2667 54.5667 43.6 54.3C44 54.0333 44.4667 53.6667 45 53.2L64.1 32.4C64.6333 31.8 65.0667 31.2667 65.4 30.8C65.8 30.2667 66 29.7667 66 29.3C66 27.8333 64.4667 26.7667 61.4 26.1C60.8 25.9667 60.3333 25.7333 60 25.4C59.6667 25 59.5 24.5 59.5 23.9C59.5 23.4333 59.7 23.0667 60.1 22.8C60.5 22.5333 60.9 22.4 61.3 22.4H68.5C70.8333 22.4 73.0333 22.4 75.1 22.4C77.2333 22.3333 79.4 22.2667 81.6 22.2C83.8667 22.1333 86.3667 22.1 89.1 22.1C89.7667 22.1 90.3667 22.2333 90.9 22.5C91.5 22.7 91.8 23.0667 91.8 23.6C91.8 24.2667 91.4333 24.7667 90.7 25.1C90.0333 25.3667 89.4 25.5667 88.8 25.7C85.2667 26.1667 82.2667 26.9667 79.8 28.1C77.4 29.1667 75.2667 30.4 73.4 31.8C71.4667 33.2667 69.5667 34.8667 67.7 36.6C65.9 38.3333 64.0667 40.1333 62.2 42C60.4 43.8667 58.5 45.7 56.5 47.5C55.4333 48.4333 55.4333 49.5 56.5 50.7L80.4 77.7C81.2 78.5667 82.0333 79.4 82.9 80.2C83.8333 81 84.9 81.7333 86.1 82.4C87.3 83 88.7667 83.5667 90.5 84.1C91.1 84.3 91.7667 84.5333 92.5 84.8C93.2333 85.0667 93.6 85.5333 93.6 86.2C93.6 86.6667 93.2333 87.1 92.5 87.5C91.8333 87.8333 90.8333 88 89.5 88C87.5 88 85.4667 87.9333 83.4 87.8C81.3333 87.6667 79.2333 87.5667 77.1 87.5C75.0333 87.3667 72.9333 87.3 70.8 87.3C68.3333 87.3 66.0333 87.3667 63.9 87.5C61.8333 87.7 59.6333 87.8 57.3 87.8C56.9 87.8 56.5 87.6667 56.1 87.4C55.7 87.1333 55.5 86.7667 55.5 86.3C55.5 85.1667 56.1333 84.4333 57.4 84.1C60.2 83.5667 61.6667 82.6 61.8 81.2C61.8 80.6667 61.6333 80.1333 61.3 79.6C61.0333 79.0667 60.6333 78.4667 60.1 77.8L44.9 59.8C44.4333 59.2667 44 58.8667 43.6 58.6C43.2 58.3333 42.8333 58.2 42.5 58.2C42.2333 58.2 41.9667 58.3333 41.7 58.6C41.5 58.8667 41.4 59.2667 41.4 59.8C41.4 62.8 41.4 65.8 41.4 68.8C41.4667 71.7333 41.5667 74.7 41.7 77.7C41.7667 78.9 41.9 79.9 42.1 80.7C42.3667 81.4333 42.8667 82.0667 43.6 82.6C44.4 83.0667 45.6667 83.5667 47.4 84.1C48 84.3 48.5667 84.5333 49.1 84.8C49.6333 85.0667 49.9 85.5333 49.9 86.2C49.9 86.6667 49.6 87.0667 49 87.4C48.4 87.7333 47.7667 87.9 47.1 87.9C44.9667 87.9 43.0667 87.8333 41.4 87.7C39.7333 87.5667 38.2 87.4333 36.8 87.3C35.4667 87.1667 34.1333 87.1 32.8 87.1C31.4667 87.1 30.1667 87.2 28.9 87.4C27.6333 87.5333 26.2 87.6667 24.6 87.8C23.0667 88 21.1333 88.1 18.8 88.1Z" fill="white"/>
</svg>
