<svg xmlns="http://www.w3.org/2000/svg" viewBox="0 0 500 500"><g id="freepik--background-simple--inject-257"><path d="M309.76,40.69c-5.92-8.64-12.57-16.74-21.42-21.42-38.66-20.45-84.78,1.94-112.18,33-19.27,21.86-31.29,49.79-50.76,71.32C99.48,152.29,12.71,170.24,6,240.16.21,299.5,68,318.91,98.9,353.58c15.82,17.76,17.85,42.95,24.41,65.45s16.41,44.5,35.69,57.37c15.74,10.51,35,12.81,53.58,12.78,25.54-.05,52.3-4.59,72.6-21.17,8.84-7.21,16.41-16.65,26.71-21.14,34.4-15,62.53,23.25,95,26.57,30.31,3.1,60.38-16.91,70.56-47.56,10-30.22,4.76-65.94-7-94.74-7.68-18.83-25.59-37.25-25-58.74.21-7.4,3.36-14.31,6.58-20.86,9.54-19.44,20.31-38.28,27.89-58.68,12.12-32.61,15.14-71.61-9.54-98.48C442.12,63.57,398.09,80,363.56,84.24c-19.48,2.36-33-12.3-43.55-27.94C316.65,51.32,313.34,45.91,309.76,40.69Z" style="fill:#FFFFFF"></path><path d="M309.76,40.69c-5.92-8.64-12.57-16.74-21.42-21.42-38.66-20.45-84.78,1.94-112.18,33-19.27,21.86-31.29,49.79-50.76,71.32C99.48,152.29,12.71,170.24,6,240.16.21,299.5,68,318.91,98.9,353.58c15.82,17.76,17.85,42.95,24.41,65.45s16.41,44.5,35.69,57.37c15.74,10.51,35,12.81,53.58,12.78,25.54-.05,52.3-4.59,72.6-21.17,8.84-7.21,16.41-16.65,26.71-21.14,34.4-15,62.53,23.25,95,26.57,30.31,3.1,60.38-16.91,70.56-47.56,10-30.22,4.76-65.94-7-94.74-7.68-18.83-25.59-37.25-25-58.74.21-7.4,3.36-14.31,6.58-20.86,9.54-19.44,20.31-38.28,27.89-58.68,12.12-32.61,15.14-71.61-9.54-98.48C442.12,63.57,398.09,80,363.56,84.24c-19.48,2.36-33-12.3-43.55-27.94C316.65,51.32,313.34,45.91,309.76,40.69Z" style="fill:#fff;opacity:0.7000000000000001"></path></g><g id="freepik--Hearts--inject-257"><path d="M414.82,36.67c-3.64-1.61-8-.09-10.7,3.4-2.73-3.49-7.07-5-10.71-3.4-4.44,1.95-6.16,7.83-3.84,13.11a18,18,0,0,0,4.25,5.37c1.78,1.74,3.52,3.5,5.47,5.06a38.63,38.63,0,0,1,4.91,4.42c2.72-2.35,5.49-4.66,8.09-7.14s5.28-4.89,6.59-8.24a10.94,10.94,0,0,0-.44-9.27A7.8,7.8,0,0,0,414.82,36.67Z" style="fill:#FFFFFF"></path><path d="M426.31,346.64c-3.77-1.66-8.26-.09-11.09,3.53-2.83-3.62-7.32-5.19-11.09-3.53-4.61,2-6.4,8.12-4,13.6a18.36,18.36,0,0,0,4.4,5.56c1.84,1.8,3.65,3.63,5.66,5.24a39.86,39.86,0,0,1,5.09,4.58c2.83-2.43,5.69-4.82,8.39-7.4s5.48-5.06,6.83-8.53a11.31,11.31,0,0,0-.46-9.61A8,8,0,0,0,426.31,346.64Z" style="fill:#FFFFFF"></path></g><g id="freepik--Plants--inject-257"><path d="M432.79,208.42c-1.06,3.73.28,12.3.28,12.31s5.39-2.6,5.71-2.81c3.7-2.42,9.42-9.26,8.11-14a5.85,5.85,0,0,0-7.89-3.68C435.74,201.47,433.7,205.25,432.79,208.42Z" style="fill:#263238"></path><path d="M408.27,214.73c0,3.72,3.21,11.1,3.47,11.69a102.34,102.34,0,0,0-12.26,6.38c-2.31,1.38-4.58,2.85-6.85,4.34.93-.83,1.76-1.59,1.87-1.71,2.92-3.31,6.63-11.42,4.11-15.67a5.84,5.84,0,0,0-8.58-1.47c-2.81,2.07-3.78,6.27-3.81,9.56s2.61,9.7,3.33,11.37L387,241c-4.13,2.82-8.24,5.65-12.36,8.3-1.45.93-2.91,1.8-4.37,2.67.83-.74,1.52-1.38,1.62-1.48,2.92-3.31,6.63-11.42,4.11-15.68a5.85,5.85,0,0,0-8.58-1.46c-2.81,2.07-3.78,6.26-3.81,9.56s2.35,9.07,3.2,11.06c-1.52.85-3,1.7-4.56,2.46-1,.49-2,1-3.09,1.47L356,259.21c-2,.78-4.11,1.6-6.11,2.31-1.39.51-2.72,1-4.05,1.43,1.45-.91,4.26-2.76,4.48-2.94,3.39-2.82,8.29-10.28,6.44-14.87a5.85,5.85,0,0,0-8.26-2.75c-3.09,1.63-4.68,5.62-5.22,8.87-.59,3.59,1.39,11.08,1.64,12-2.21.76-4.37,1.48-6.43,2.12-1.51.48-3,.93-4.38,1.36l.41,3.05q2.34-.75,4.89-1.62c2.25-.77,4.65-1.63,7.09-2.54a65.69,65.69,0,0,0,4,6.28c-2.38,2.88-4.7,9.73-5,10.62-2.27-.59-4.47-1.18-6.54-1.78-1.09-.31-2.13-.61-3.16-.92l.44,3.23,2,.52c2.3.61,4.77,1.21,7.32,1.8-.07,1-.6,8.7.67,12.11,1.15,3.09,3.47,6.71,6.81,7.72a5.86,5.86,0,0,0,7.59-4.28c.94-4.85-5.29-11.24-9.16-13.37-.23-.12-2.86-1.21-4.52-1.86l3.12.71c2.12.47,4.25.87,6.54,1.32l3.37.54c1.12.2,2.34.27,3.51.42,2.74.27,5.53.42,8.34.51-.41,1.85-1.76,8.47-1.09,11.72s2.41,7.16,5.56,8.66a5.85,5.85,0,0,0,8.15-3.08c1.67-4.65-3.52-11.91-7-14.6-.21-.17-2.94-1.81-4.46-2.69,1.69,0,3.38.09,5.09.07,4.94-.05,9.94-.25,14.93-.43l4.57-.13c-.15.66-1.93,8.49-1.18,12.12.67,3.23,2.41,7.16,5.57,8.66a5.84,5.84,0,0,0,8.14-3.07c1.67-4.66-3.52-11.91-7-14.6-.27-.21-4.2-2.57-5.23-3.12,3.36-.1,6.71-.16,10-.08a101.27,101.27,0,0,1,13.32,1.09c-.07.31-2,8.47-1.2,12.19.67,3.23,2.42,7.17,5.57,8.67a5.86,5.86,0,0,0,8.15-3.08c1.66-4.66-3.53-11.91-7-14.6-.27-.21-4.51-2.75-5.31-3.16.26,0,.53.05.78.09a76.07,76.07,0,0,1,12.94,3.49c2.33.83,4.51,1.74,6.61,2.68-.51,1.49-2.75,8.3-2.44,11.73.31,3.28,1.62,7.38,4.58,9.21a5.85,5.85,0,0,0,8.44-2.16c2.17-4.44-2.19-12.22-5.38-15.28-.17-.17-2.12-1.66-3.56-2.73.95.44,1.93.87,2.82,1.31,3.36,1.64,6.34,3.34,9,4.88,1.48.88,2.81,1.71,4,2.5.26,1.71,1.4,8.62,3.23,11.46s4.83,5.81,8.31,6.08a5.87,5.87,0,0,0,6.5-5.81c-.13-4.94-7.59-9.84-11.82-11.09-.37-.1-6.29-1.13-6.28-1l0,.1c-1.17-.78-2.44-1.6-3.84-2.48-2.59-1.59-5.54-3.37-8.88-5.08a102.79,102.79,0,0,0-11-5,76.35,76.35,0,0,0-13-3.82l-.16,0c1.44-.17,5.45-.77,5.75-.85,4.26-1.14,11.83-5.86,12.08-10.8a5.86,5.86,0,0,0-6.35-6c-3.49.18-6.61,3.14-8.46,5.87-2.09,3.08-3.44,11-3.55,11.66a103.89,103.89,0,0,0-13.75-1.44c-2.68-.11-5.39-.15-8.11-.15,1.24-.18,2.35-.36,2.5-.4,4.27-1.14,11.84-5.86,12.08-10.8a5.85,5.85,0,0,0-6.35-6c-3.48.18-6.6,3.14-8.45,5.87s-3.17,9.53-3.49,11.32c-1,0-2.09,0-3.13,0-5,.07-10,.16-14.88.1-1.72,0-3.42-.1-5.12-.18,1.1-.17,2-.31,2.17-.35,4.26-1.15,11.83-5.86,12.08-10.8a5.85,5.85,0,0,0-6.35-6c-3.49.18-6.61,3.14-8.46,5.87s-3,8.87-3.43,11c-1.74-.13-3.48-.26-5.16-.47-1.14-.17-2.25-.25-3.39-.48l-3.36-.61c-2.12-.46-4.31-.93-6.37-1.43-1.44-.35-2.8-.7-4.17-1.05,1.72,0,5.08.05,5.36,0a22.69,22.69,0,0,0,10.55-4.49,6.8,6.8,0,0,0,1.27-.25,5.86,5.86,0,0,0,4-7.75c-1.9-4.57-10.62-6.46-15-6.1-.26,0-3.05.57-4.8.94,1-.38,2-.73,3-1.13,2-.78,4-1.61,6.19-2.5l3.11-1.42c1.05-.45,2.1-1.06,3.16-1.59,2.43-1.28,4.84-2.69,7.23-4.17.69,1.77,3.21,8,5.56,10.38s6,4.64,9.42,4.15a5.85,5.85,0,0,0,5.1-7.06c-1.18-4.8-9.51-8-13.92-8.3-.27,0-3.46.11-5.21.22,1.43-.9,2.87-1.79,4.29-2.75,4.09-2.77,8.15-5.69,12.21-8.59l3.74-2.64c.24.63,3.08,8.15,5.71,10.77,2.33,2.32,6,4.64,9.42,4.15a5.86,5.86,0,0,0,5.1-7.06c-1.19-4.8-9.51-8-13.92-8.3-.33,0-4.92.17-6.08.28,2.75-1.93,5.51-3.83,8.3-5.59a102.39,102.39,0,0,1,11.72-6.44c.11.3,3,8.15,5.73,10.83,2.33,2.33,6,4.65,9.41,4.16a5.84,5.84,0,0,0,5.1-7.06c-1.18-4.8-9.51-8-13.91-8.3-.35,0-5.28.19-6.17.29.24-.11.47-.25.7-.35a75,75,0,0,1,12.72-4.23c2.39-.6,4.72-1,7-1.41.4,1.52,2.28,8.44,4.43,11.12s5.42,5.27,8.91,5.16a5.85,5.85,0,0,0,5.85-6.45c-.65-4.91-8.58-9-12.92-9.78-.24,0-2.69-.22-4.48-.32,1-.15,2.09-.33,3.08-.46,3.7-.49,7.13-.71,10.16-.88,1.73-.08,3.29-.12,4.76-.14,1.16,1.28,5.92,6.42,9,7.78s7.23,2.18,10.28.48a5.86,5.86,0,0,0,2.21-8.43c-2.83-4-11.75-4-16-2.72-.37.11-5.87,2.52-5.81,2.59l.07.07c-1.41,0-2.92,0-4.57.05-3,.1-6.48.25-10.21.66a102.41,102.41,0,0,0-12,1.9,76.18,76.18,0,0,0-13,4l-.15.07c1.11-.93,4.12-3.65,4.33-3.88,2.93-3.31,6.64-11.42,4.12-15.68a5.86,5.86,0,0,0-8.59-1.46C409.27,207.24,408.31,211.43,408.27,214.73Z" style="fill:#263238"></path><path d="M442.55,295.7c0,.08,5.93.8,6.31.8,4.41,0,13-2.52,14.5-7.22a5.85,5.85,0,0,0-4.55-7.43c-3.41-.75-7.2,1.29-9.7,3.43C446.16,287.8,442.55,295.7,442.55,295.7Z" style="fill:#263238"></path><path d="M302.37,52.49c1.39,1.73,5.83,3.92,5.83,3.92s.56-3.36.57-3.58c.09-2.52-1.22-7.43-3.87-8.39a3.33,3.33,0,0,0-4.31,2.46C300.1,48.83,301.2,51,302.37,52.49Z" style="fill:#263238"></path><path d="M297.25,66c1.72,1.24,6.23,2.15,6.59,2.22A58,58,0,0,0,302.78,76c-.12,1.53-.18,3.08-.23,4.62-.08-.71-.16-1.34-.18-1.43-.58-2.45-3.14-6.85-5.95-7.07a3.34,3.34,0,0,0-3.51,3.52c0,2,1.68,3.82,3.2,4.92s5.38,2,6.39,2.18c0,.6,0,1.19,0,1.78,0,2.85-.08,5.7-.19,8.49,0,1-.12,1.95-.2,2.91-.07-.63-.14-1.16-.16-1.24-.58-2.45-3.13-6.84-6-7.07a3.34,3.34,0,0,0-3.5,3.52c0,2,1.67,3.82,3.2,4.92s5,1.89,6.21,2.15c-.11,1-.21,2-.36,2.93-.11.65-.18,1.28-.33,1.92s-.27,1.28-.4,1.91c-.3,1.2-.61,2.44-.93,3.61-.22.81-.45,1.58-.67,2.36.05-1,.12-2.9.1-3.06-.2-2.51-2.06-7.24-4.81-7.89a3.33,3.33,0,0,0-4,2.94c-.27,2,1.07,4,2.41,5.35s5.62,3,6.14,3.19c-.37,1.28-.75,2.52-1.12,3.69l-.81,2.49,1.55.81c.28-.89.57-1.82.86-2.81.38-1.3.77-2.7,1.15-4.14a36.16,36.16,0,0,0,4.26.18c.55,2.06,3,5.39,3.3,5.82-1,.86-2,1.69-3,2.46-.5.41-1,.79-1.47,1.17l1.65.86.89-.74c1-.87,2.13-1.83,3.24-2.82.42.35,3.86,3.14,5.86,3.67,1.82.48,4.27.59,5.84-.63a3.34,3.34,0,0,0,.5-5c-1.95-2-7-1.23-9.24-.12-.13.06-1.5.93-2.35,1.49l1.35-1.22c.92-.83,1.81-1.69,2.77-2.61l1.36-1.4c.46-.45.9-1,1.35-1.5,1-1.18,2-2.43,3-3.71.73.8,3.37,3.6,5.1,4.36s4.13,1.23,5.87.26a3.35,3.35,0,0,0,1.25-4.81c-1.63-2.31-6.72-2.28-9.12-1.53-.15,0-1.82.78-2.72,1.19.57-.77,1.15-1.54,1.7-2.34,1.61-2.32,3.16-4.72,4.71-7.1l1.45-2.18c.25.29,3.32,3.69,5.26,4.54,1.72.75,4.13,1.23,5.86.26a3.34,3.34,0,0,0,1.25-4.81C339,93,333.87,93,331.47,93.79c-.19.06-2.58,1.11-3.18,1.41,1.06-1.6,2.14-3.18,3.26-4.69a58.69,58.69,0,0,1,4.89-5.85c.12.14,3.3,3.7,5.28,4.57,1.73.75,4.14,1.23,5.87.26a3.34,3.34,0,0,0,1.25-4.81c-1.63-2.31-6.71-2.28-9.12-1.53-.19.06-2.76,1.19-3.21,1.43.1-.1.19-.22.3-.33a42.37,42.37,0,0,1,5.88-4.88c1.15-.81,2.29-1.53,3.42-2.2.52.73,3,4,4.66,5s4,1.68,5.8.9a3.33,3.33,0,0,0,1.77-4.64c-1.36-2.47-6.42-3-8.89-2.52-.14,0-1.47.44-2.44.76.51-.3,1-.61,1.53-.88,1.87-1,3.65-1.86,5.22-2.58.91-.4,1.73-.75,2.5-1.06.89.44,4.48,2.18,6.4,2.27s4.3-.35,5.57-1.88a3.34,3.34,0,0,0-.57-4.94c-2.35-1.56-7.08.3-9.05,1.87-.18.13-2.6,2.55-2.55,2.58l.05,0c-.75.29-1.55.61-2.42,1-1.59.69-3.39,1.48-5.29,2.47a58.79,58.79,0,0,0-6,3.49,43.6,43.6,0,0,0-6.06,4.81l-.07.07c.4-.72,1.44-2.79,1.5-3,.87-2.36,1.16-7.44-1.06-9.18a3.34,3.34,0,0,0-4.87,1c-1.06,1.69-.7,4.11,0,5.87.75,2,4,5.23,4.26,5.49A61,61,0,0,0,330.9,90c-.94,1.22-1.84,2.47-2.74,3.73.33-.64.61-1.21.64-1.29.87-2.37,1.16-7.44-1.06-9.18a3.33,3.33,0,0,0-4.86,1c-1.07,1.68-.71,4.11-.05,5.87s3.4,4.61,4.13,5.34l-1,1.47c-1.61,2.35-3.21,4.7-4.84,7-.58.79-1.18,1.56-1.77,2.32.28-.56.52-1,.55-1.12.87-2.37,1.16-7.44-1.06-9.18A3.34,3.34,0,0,0,314,97c-1.06,1.68-.71,4.11,0,5.87s3.13,4.33,4,5.21c-.63.77-1.26,1.54-1.91,2.25-.45.48-.86,1-1.34,1.43l-1.39,1.36c-.91.84-1.85,1.71-2.77,2.5-.63.56-1.24,1.07-1.85,1.6.58-.79,1.69-2.35,1.77-2.49a13,13,0,0,0,1.38-6.4,4,4,0,0,0,.3-.67,3.33,3.33,0,0,0-2.31-4.4c-2.75-.62-6.5,2.82-7.78,5-.07.13-.73,1.61-1.14,2.55.15-.59.31-1.16.46-1.77.3-1.2.57-2.41.87-3.71l.36-1.91c.14-.64.2-1.33.3-2,.21-1.55.34-3.14.44-4.74,1,.26,4.8,1.15,6.66.82s4.12-1.25,5-3a3.34,3.34,0,0,0-1.61-4.7c-2.63-1-6.85,1.81-8.45,3.76-.1.12-1.08,1.65-1.61,2.5.05-1,.11-1.93.13-2.9.06-2.82,0-5.67,0-8.52V82c.38.1,4.81,1.25,6.9.88,1.85-.32,4.12-1.25,5-3a3.34,3.34,0,0,0-1.61-4.7c-2.63-1-6.85,1.8-8.45,3.75-.12.15-1.53,2.35-1.86,2.93,0-1.92,0-3.83.12-5.71a59.6,59.6,0,0,1,.85-7.57c.18,0,4.8,1.26,6.94.89,1.85-.32,4.12-1.25,5-3a3.34,3.34,0,0,0-1.61-4.7c-2.63-1-6.86,1.8-8.45,3.75-.12.16-1.65,2.53-1.89,3,0-.14,0-.29.07-.44a43,43,0,0,1,2.21-7.31c.51-1.32,1.07-2.55,1.64-3.73.84.32,4.68,1.72,6.64,1.59s4.24-.79,5.33-2.45a3.33,3.33,0,0,0-1.08-4.84c-2.5-1.32-7,1-8.81,2.8-.1.1-1,1.18-1.62,2,.27-.53.54-1.08.8-1.58,1-1.89,2-3.56,2.93-5,.53-.83,1-1.57,1.5-2.26,1-.12,4.94-.65,6.59-1.65s3.4-2.65,3.61-4.63a3.34,3.34,0,0,0-3.2-3.8c-2.82,0-5.74,4.15-6.52,6.54-.07.21-.76,3.57-.71,3.56h.06c-.46.65-1,1.36-1.48,2.14-1,1.45-2,3.1-3.05,5a59.73,59.73,0,0,0-3.06,6.2,44.38,44.38,0,0,0-2.4,7.36s0,.06,0,.09c-.07-.82-.35-3.12-.39-3.29-.58-2.45-3.13-6.85-5.95-7.07a3.33,3.33,0,0,0-3.5,3.51C294.09,63.07,295.72,64.89,297.25,66Z" style="fill:#263238"></path><path d="M346.25,76.65s2.32-2.5,2.45-2.67c1.46-2,3.09-6.88,1.4-9.14a3.33,3.33,0,0,0-5-.32c-1.47,1.34-1.77,3.78-1.6,5.65C343.76,72.37,346.25,76.65,346.25,76.65Z" style="fill:#263238"></path><path d="M305.47,452.56c1.35-1.74,5.75-4,5.75-4s.63,3.35.64,3.57c.13,2.51-1.08,7.45-3.71,8.46a3.34,3.34,0,0,1-4.36-2.38C303.27,456.26,304.32,454.05,305.47,452.56Z" style="fill:#263238"></path><path d="M300.09,439.16c1.7-1.28,6.19-2.27,6.55-2.35a58.88,58.88,0,0,1-1.21-7.79c-.14-1.53-.24-3.07-.31-4.61-.07.71-.14,1.34-.16,1.43-.53,2.46-3,6.91-5.81,7.18a3.34,3.34,0,0,1-3.58-3.45c0-2,1.61-3.85,3.11-5s5.34-2.07,6.35-2.3c0-.6,0-1.19-.07-1.78-.1-2.85-.19-5.7-.36-8.48-.06-1-.15-1.95-.24-2.91l-.14,1.24c-.54,2.46-3,6.9-5.82,7.18a3.33,3.33,0,0,1-3.57-3.45c0-2,1.6-3.85,3.11-5s5-2,6.17-2.26c-.13-1-.25-2-.41-2.93-.13-.64-.21-1.27-.37-1.91s-.3-1.28-.44-1.9c-.33-1.2-.65-2.43-1-3.59-.23-.81-.47-1.58-.71-2.35.07,1,.17,2.89.16,3.05-.15,2.52-1.93,7.29-4.66,8a3.34,3.34,0,0,1-4.05-2.87c-.3-2,1-4,2.31-5.4s5.56-3.1,6.08-3.3c-.4-1.27-.8-2.51-1.19-3.67-.29-.86-.58-1.68-.86-2.47l1.54-.85c.3.89.6,1.82.91,2.8.41,1.29.82,2.68,1.23,4.12a34.06,34.06,0,0,1,4.25-.26c.52-2.07,2.89-5.45,3.19-5.88-1-.84-2-1.66-3-2.41l-1.49-1.14,1.63-.89.9.72c1.06.86,2.17,1.79,3.3,2.76.41-.35,3.8-3.21,5.79-3.78,1.81-.51,4.26-.67,5.85.53a3.33,3.33,0,0,1,.6,4.93c-1.92,2.07-7,1.36-9.24.3-.14-.06-1.52-.9-2.39-1.45.46.4.91.78,1.38,1.2.93.81,1.84,1.65,2.82,2.56l1.38,1.37c.48.44.92,1,1.38,1.47,1,1.16,2.06,2.4,3,3.66.72-.81,3.3-3.67,5-4.46s4.11-1.31,5.86-.36a3.33,3.33,0,0,1,1.34,4.78c-1.58,2.34-6.67,2.4-9.09,1.7-.15,0-1.83-.74-2.74-1.15.59.77,1.18,1.53,1.75,2.32,1.64,2.29,3.24,4.65,4.84,7l1.48,2.15c.26-.3,3.25-3.76,5.18-4.64,1.71-.78,4.1-1.31,5.86-.37a3.35,3.35,0,0,1,1.34,4.79c-1.58,2.34-6.67,2.4-9.09,1.7-.18-.06-2.6-1.07-3.2-1.35,1.09,1.57,2.2,3.13,3.34,4.63a58.4,58.4,0,0,0,5,5.75c.12-.13,3.23-3.76,5.2-4.67,1.71-.78,4.11-1.3,5.86-.36a3.33,3.33,0,0,1,1.34,4.78c-1.58,2.34-6.66,2.4-9.08,1.7-.19,0-2.79-1.14-3.25-1.37.11.1.21.22.31.32a42.45,42.45,0,0,0,6,4.77c1.17.8,2.32,1.49,3.47,2.14.51-.74,2.88-4.07,4.56-5.08s3.94-1.75,5.79-1a3.34,3.34,0,0,1,1.85,4.61c-1.31,2.5-6.36,3.12-8.84,2.69-.14,0-1.48-.42-2.46-.71.52.28,1.05.59,1.56.85,1.88,1,3.67,1.78,5.26,2.47.91.39,1.74.72,2.52,1,.88-.46,4.44-2.27,6.36-2.39s4.3.26,5.6,1.77a3.34,3.34,0,0,1-.48,4.95c-2.32,1.61-7.08-.16-9.09-1.69-.17-.13-2.64-2.51-2.59-2.53l.05,0c-.76-.28-1.56-.58-2.44-.93-1.61-.65-3.42-1.41-5.33-2.37a58.53,58.53,0,0,1-6-3.37,43.67,43.67,0,0,1-6.15-4.7l-.07-.07c.41.72,1.49,2.77,1.56,2.93.91,2.35,1.3,7.42-.89,9.2a3.35,3.35,0,0,1-4.89-.91c-1.09-1.66-.78-4.09-.15-5.86.71-2,3.91-5.31,4.16-5.57a60.74,60.74,0,0,1-5.3-5.84c-1-1.19-1.89-2.42-2.81-3.67.34.63.63,1.2.66,1.28.92,2.35,1.3,7.42-.88,9.2a3.35,3.35,0,0,1-4.89-.91c-1.09-1.66-.78-4.09-.15-5.87s3.3-4.67,4-5.42c-.35-.48-.7-1-1-1.45-1.66-2.32-3.3-4.64-5-6.87-.59-.79-1.2-1.54-1.81-2.29.3.56.54,1,.57,1.11.92,2.35,1.3,7.42-.89,9.2a3.34,3.34,0,0,1-4.88-.91c-1.09-1.66-.78-4.1-.15-5.87s3.05-4.39,3.89-5.29c-.64-.75-1.29-1.51-1.95-2.21-.46-.47-.88-.95-1.37-1.4l-1.41-1.34c-.93-.82-1.89-1.67-2.81-2.44-.65-.55-1.27-1.06-1.89-1.57.6.78,1.74,2.32,1.82,2.46a13,13,0,0,1,1.5,6.37,3.72,3.72,0,0,1,.31.67,3.34,3.34,0,0,1-2.22,4.44c-2.74.67-6.56-2.7-7.87-4.84-.08-.13-.77-1.6-1.2-2.53.17.59.33,1.15.5,1.76.32,1.19.61,2.39.93,3.69.14.63.27,1.26.4,1.9s.22,1.33.34,2c.23,1.55.4,3.14.52,4.74,1.05-.29,4.78-1.24,6.65-.95s4.15,1.17,5.09,2.92a3.34,3.34,0,0,1-1.52,4.73c-2.61,1.08-6.89-1.67-8.52-3.59-.1-.12-1.12-1.63-1.66-2.47.07,1,.15,1.92.18,2.9.12,2.81.14,5.67.18,8.51,0,.88,0,1.74.05,2.61.37-.1,4.78-1.33,6.87-1,1.86.29,4.15,1.17,5.09,2.93a3.33,3.33,0,0,1-1.52,4.73c-2.61,1.07-6.89-1.68-8.52-3.6-.12-.14-1.57-2.32-1.92-2.89,0,1.92.1,3.83.23,5.71a60.77,60.77,0,0,0,1,7.55c.17-.05,4.77-1.35,6.91-1,1.86.29,4.15,1.17,5.09,2.93a3.33,3.33,0,0,1-1.52,4.73c-2.61,1.07-6.89-1.68-8.52-3.6-.12-.15-1.69-2.49-1.94-2.93,0,.14,0,.29.07.44a43.29,43.29,0,0,0,2.35,7.27c.53,1.3,1.12,2.52,1.71,3.69.83-.33,4.65-1.8,6.61-1.71s4.25.71,5.38,2.35a3.33,3.33,0,0,1-1,4.86c-2.48,1.36-7-.9-8.86-2.63-.1-.1-1-1.17-1.66-1.95.28.52.56,1.07.83,1.56,1,1.87,2.08,3.52,3,5,.54.82,1,1.55,1.54,2.23,1,.1,4.95.56,6.62,1.52s3.44,2.59,3.69,4.56a3.34,3.34,0,0,1-3.13,3.86c-2.82.07-5.82-4-6.64-6.42-.07-.2-.82-3.55-.77-3.54h.06c-.48-.64-1-1.34-1.52-2.11-1-1.44-2.08-3.07-3.15-4.92a59.55,59.55,0,0,1-3.17-6.15,43.63,43.63,0,0,1-2.54-7.31s0-.06,0-.09c-.05.82-.28,3.12-.32,3.3-.53,2.46-3,6.9-5.81,7.18a3.34,3.34,0,0,1-3.58-3.45C297,442.15,298.59,440.29,300.09,439.16Z" style="fill:#263238"></path><path d="M348.89,427.59s2.37,2.45,2.5,2.63c1.5,2,3.21,6.81,1.57,9.1a3.34,3.34,0,0,1-4.95.42c-1.5-1.32-1.84-3.75-1.7-5.62C346.47,431.91,348.89,427.59,348.89,427.59Z" style="fill:#263238"></path></g><g id="freepik--musical-notes--inject-257"><path d="M455,75a1.81,1.81,0,0,0-.73-1.46,1.85,1.85,0,0,0-1.61-.29l-19.14,5.67a1.82,1.82,0,0,0-1.31,1.75v21.91a5.63,5.63,0,1,0,3.57,5.74h.08V91.6L451.31,87v9.67a5.72,5.72,0,0,0-2-.38,5.64,5.64,0,1,0,5.64,5.64s0-.06,0-.09Zm-3.64,8.21-15.5,4.59V82l15.5-4.59Z" style="fill:#263238"></path><path d="M386.9,374.47a1.23,1.23,0,0,0-1.59-1.18l-13,3.85a1.23,1.23,0,0,0-.89,1.19v14.88a3.72,3.72,0,0,0-1.37-.27,3.83,3.83,0,1,0,3.79,4.16h.05V385.75l10.53-3.12v6.57a3.77,3.77,0,0,0-1.35-.25,3.83,3.83,0,1,0,3.83,3.82v-18.3Zm-2.48,5.58-10.53,3.12v-3.92l10.53-3.12Z" style="fill:#263238"></path></g><g id="freepik--Trumpet--inject-257"><path d="M454.2,384.65l-12.78,25.07,15.24-28.07A9,9,0,0,0,454.2,384.65Z" style="fill:none;stroke:#263238;stroke-linecap:round;stroke-linejoin:round"></path><path d="M453.94,333s7.54,13.75,3.62,25.31l-24.38,51-2,4.28-.91,1.89-2,4.28-.91,1.89-2,4.28-21.78,45.6,3.41,1.74,6.35-11.68a14.4,14.4,0,0,1,1-10.5l35.17-69a14.57,14.57,0,0,1,11.17-7.82L466.76,363c7.05-10,22.61-11.94,22.61-11.94A76.3,76.3,0,0,0,453.94,333Z" style="fill:none;stroke:#263238;stroke-linecap:round;stroke-linejoin:round"></path><path d="M441.42,409.72l-1.57,3.08-.08,0Z" style="fill:none;stroke:#263238;stroke-linecap:round;stroke-linejoin:round"></path><path d="M460.59,374.39a14.54,14.54,0,0,1,14.72,21l-35.16,69a14.52,14.52,0,0,1-26.93-2.7,14.4,14.4,0,0,1,1-10.5l35.17-69A14.57,14.57,0,0,1,460.59,374.39ZM439.85,412.8,419,453.62a9.16,9.16,0,1,0,16.33,8.32l35.16-69a9.16,9.16,0,0,0-13.87-11.33,9,9,0,0,0-2.46,3l-12.78,25.07-1.65,3Z" style="fill:none;stroke:#263238;stroke-linecap:round;stroke-linejoin:round"></path><path d="M425.81,408.3c-.73,1.42-.78,2.84-.12,3.18.5.25,1.27-.2,1.93-1.06a5,5,0,0,0,.57-.91,6.32,6.32,0,0,0,.4-1c.31-1,.22-1.92-.28-2.18C427.65,406,426.53,406.88,425.81,408.3Z" style="fill:none;stroke:#263238;stroke-linecap:round;stroke-linejoin:round"></path><rect x="459.4" y="424.52" width="4.74" height="4.23" transform="translate(-128.06 644.23) rotate(-62.99)" style="fill:none;stroke:#263238;stroke-linecap:round;stroke-linejoin:round"></rect><rect x="444.57" y="409.91" width="4.74" height="18.33" transform="translate(-129.42 626.89) rotate(-62.99)" style="fill:none;stroke:#263238;stroke-linecap:round;stroke-linejoin:round"></rect><polygon points="430.42 407.99 428.27 412.21 431.14 413.68 433.18 409.4 430.42 407.99" style="fill:none;stroke:#263238;stroke-linecap:round;stroke-linejoin:round"></polygon><path d="M428.19,409.51a5,5,0,0,1-.57.91l1.24.63,1-1.9-1.24-.64A6.32,6.32,0,0,1,428.19,409.51Z" style="fill:none;stroke:#263238;stroke-linecap:round;stroke-linejoin:round"></path><path d="M422.7,414.39c-.72,1.42-.78,2.84-.11,3.18.49.25,1.27-.2,1.92-1.06a5.32,5.32,0,0,0,.57-.9,5.57,5.57,0,0,0,.4-1c.32-1,.23-1.92-.27-2.18C424.55,412.09,423.42,413,422.7,414.39Z" style="fill:none;stroke:#263238;stroke-linecap:round;stroke-linejoin:round"></path><rect x="456.29" y="430.61" width="4.74" height="4.23" transform="translate(-135.19 644.79) rotate(-62.99)" style="fill:none;stroke:#263238;stroke-linecap:round;stroke-linejoin:round"></rect><rect x="441.46" y="416" width="4.74" height="18.33" transform="translate(-136.54 627.46) rotate(-62.99)" style="fill:none;stroke:#263238;stroke-linecap:round;stroke-linejoin:round"></rect><polygon points="427.31 414.09 425.16 418.31 428.19 419.85 430.23 415.57 427.31 414.09" style="fill:none;stroke:#263238;stroke-linecap:round;stroke-linejoin:round"></polygon><path d="M425.08,415.61a5.32,5.32,0,0,1-.57.9l1.24.63,1-1.9-1.25-.64A5.57,5.57,0,0,1,425.08,415.61Z" style="fill:none;stroke:#263238;stroke-linecap:round;stroke-linejoin:round"></path><path d="M419.59,420.48c-.72,1.42-.77,2.84-.11,3.18.5.25,1.27-.2,1.93-1.06a5.32,5.32,0,0,0,.57-.9,6.72,6.72,0,0,0,.4-1c.31-1,.22-1.93-.28-2.18C421.44,418.18,420.32,419.06,419.59,420.48Z" style="fill:none;stroke:#263238;stroke-linecap:round;stroke-linejoin:round"></path><rect x="453.19" y="436.7" width="4.74" height="4.23" transform="translate(-142.3 645.36) rotate(-62.99)" style="fill:none;stroke:#263238;stroke-linecap:round;stroke-linejoin:round"></rect><rect x="438.36" y="422.09" width="4.74" height="18.33" transform="translate(-143.66 628.02) rotate(-62.99)" style="fill:none;stroke:#263238;stroke-linecap:round;stroke-linejoin:round"></rect><polygon points="424.21 420.17 422.06 424.39 425.24 426.02 427.29 421.74 424.21 420.17" style="fill:none;stroke:#263238;stroke-linecap:round;stroke-linejoin:round"></polygon><path d="M422,421.7a5.32,5.32,0,0,1-.57.9l1.24.64,1-1.91-1.24-.63A6.72,6.72,0,0,1,422,421.7Z" style="fill:none;stroke:#263238;stroke-linecap:round;stroke-linejoin:round"></path><path d="M399,471.83c-.53,1.05,1.35,3.07,4.2,4.52s5.59,1.79,6.12.75-1.35-3.07-4.2-4.52S399.49,470.79,399,471.83Z" style="fill:none;stroke:#263238;stroke-linecap:round;stroke-linejoin:round"></path></g><g id="freepik--speech-bubble--inject-257"><path d="M421.93,129H371.86a12,12,0,0,0-12,12v7.59a12,12,0,0,0,12,12h21.27l-7.2,19.18,19.18-19.18h16.82a12,12,0,0,0,12-12V141A12,12,0,0,0,421.93,129Z" style="fill:none;stroke:#263238;stroke-linecap:round;stroke-linejoin:round"></path><circle cx="380.82" cy="144.37" r="4.8" style="fill:#FFFFFF"></circle><path d="M402.06,144.37a4.8,4.8,0,1,1-4.8-4.79A4.8,4.8,0,0,1,402.06,144.37Z" style="fill:#FFFFFF"></path><circle cx="413.7" cy="144.37" r="4.8" style="fill:#FFFFFF"></circle></g><g id="freepik--Arrows--inject-257"><line x1="139.75" y1="212.13" x2="138.25" y2="212.13" style="fill:none;stroke:#263238;stroke-miterlimit:10"></line><line x1="135.27" y1="212.13" x2="100.96" y2="212.13" style="fill:none;stroke:#263238;stroke-miterlimit:10;stroke-dasharray:2.983720064163208,2.983720064163208"></line><polyline points="99.47 212.13 97.97 212.13 97.97 210.63" style="fill:none;stroke:#263238;stroke-miterlimit:10"></polyline><line x1="97.97" y1="207.53" x2="97.97" y2="184.34" style="fill:none;stroke:#263238;stroke-miterlimit:10;stroke-dasharray:3.091949939727783,3.091949939727783"></line><polyline points="97.97 182.8 97.97 181.3 96.47 181.3" style="fill:none;stroke:#263238;stroke-miterlimit:10"></polyline><line x1="93.61" y1="181.3" x2="37.87" y2="181.3" style="fill:none;stroke:#263238;stroke-miterlimit:10;stroke-dasharray:2.85834002494812,2.85834002494812"></line><polyline points="36.44 181.3 34.94 181.3 34.94 179.8" style="fill:none;stroke:#263238;stroke-miterlimit:10"></polyline><line x1="34.94" y1="176.72" x2="34.94" y2="73.68" style="fill:none;stroke:#263238;stroke-miterlimit:10;stroke-dasharray:3.075809955596924,3.075809955596924"></line><line x1="34.94" y1="72.14" x2="34.94" y2="70.64" style="fill:none;stroke:#263238;stroke-miterlimit:10"></line><polygon points="39.93 72.1 34.94 63.47 29.95 72.1 39.93 72.1" style="fill:#263238"></polygon><line x1="139.74" y1="317.62" x2="138.24" y2="317.62" style="fill:none;stroke:#263238;stroke-miterlimit:10"></line><line x1="135.23" y1="317.62" x2="94.53" y2="317.62" style="fill:none;stroke:#263238;stroke-miterlimit:10;stroke-dasharray:3.0147500038146973,3.0147500038146973"></line><polyline points="93.02 317.62 91.52 317.62 91.52 319.12" style="fill:none;stroke:#263238;stroke-miterlimit:10"></polyline><line x1="91.52" y1="322.17" x2="91.52" y2="418.05" style="fill:none;stroke:#263238;stroke-miterlimit:10;stroke-dasharray:3.0437400341033936,3.0437400341033936"></line><polyline points="91.52 419.57 91.52 421.07 90.02 421.07" style="fill:none;stroke:#263238;stroke-miterlimit:10"></polyline><line x1="86.93" y1="421.07" x2="20.5" y2="421.07" style="fill:none;stroke:#263238;stroke-miterlimit:10;stroke-dasharray:3.08978009223938,3.08978009223938"></line><line x1="18.96" y1="421.07" x2="17.46" y2="421.07" style="fill:none;stroke:#263238;stroke-miterlimit:10"></line><polygon points="18.91 416.08 10.28 421.07 18.91 426.05 18.91 416.08" style="fill:#263238"></polygon></g><g id="freepik--Data--inject-257"><path d="M17.86,221.48H13.21a1.15,1.15,0,1,1,0-2.3h4.65a1.15,1.15,0,0,1,0,2.3ZM19,225.64a1.14,1.14,0,0,0-1.14-1.14H13.21a1.15,1.15,0,1,0,0,2.29h4.65A1.14,1.14,0,0,0,19,225.64ZM19,231a1.14,1.14,0,0,0-1.14-1.14H13.21a1.15,1.15,0,1,0,0,2.29h4.65A1.14,1.14,0,0,0,19,231Zm0,5.31a1.14,1.14,0,0,0-1.14-1.14H13.21a1.15,1.15,0,1,0,0,2.29h4.65A1.14,1.14,0,0,0,19,236.26Zm0,5.32a1.14,1.14,0,0,0-1.14-1.15H13.21a1.15,1.15,0,1,0,0,2.29h4.65A1.14,1.14,0,0,0,19,241.58Zm0,5.31a1.14,1.14,0,0,0-1.14-1.15H13.21a1.15,1.15,0,1,0,0,2.29h4.65A1.14,1.14,0,0,0,19,246.89Zm0,5.31a1.15,1.15,0,0,0-1.14-1.15H13.21a1.15,1.15,0,1,0,0,2.3h4.65A1.15,1.15,0,0,0,19,252.2Zm0,5.31a1.15,1.15,0,0,0-1.14-1.15H13.21a1.15,1.15,0,0,0,0,2.3h4.65A1.15,1.15,0,0,0,19,257.51Zm17.39-37.18a1.15,1.15,0,0,0-1.15-1.15H23.05a1.15,1.15,0,1,0,0,2.3H35.24A1.15,1.15,0,0,0,36.39,220.33Zm0,5.31a1.14,1.14,0,0,0-1.15-1.14H23.05a1.15,1.15,0,1,0,0,2.29H35.24A1.14,1.14,0,0,0,36.39,225.64Zm0,5.31a1.14,1.14,0,0,0-1.15-1.14H23.05a1.15,1.15,0,1,0,0,2.29H35.24A1.14,1.14,0,0,0,36.39,231Zm0,5.31a1.14,1.14,0,0,0-1.15-1.14H23.05a1.15,1.15,0,1,0,0,2.29H35.24A1.14,1.14,0,0,0,36.39,236.26Zm0,5.32a1.14,1.14,0,0,0-1.15-1.15H23.05a1.15,1.15,0,1,0,0,2.29H35.24A1.14,1.14,0,0,0,36.39,241.58ZM51,246.89a1.15,1.15,0,0,0-1.15-1.15H37.65a1.15,1.15,0,0,0,0,2.29h12.2A1.15,1.15,0,0,0,51,246.89Zm0,5.31a1.16,1.16,0,0,0-1.15-1.15H37.65a1.15,1.15,0,0,0,0,2.3h12.2A1.16,1.16,0,0,0,51,252.2Zm0,5.31a1.16,1.16,0,0,0-1.15-1.15H37.65a1.15,1.15,0,0,0,0,2.3h12.2A1.16,1.16,0,0,0,51,257.51Zm-9.24-37.18a1.33,1.33,0,1,0-1.33,1.33A1.33,1.33,0,0,0,41.76,220.33Zm4,0a1.33,1.33,0,1,0-1.32,1.33A1.33,1.33,0,0,0,45.74,220.33Zm4,0a1.33,1.33,0,1,0-1.33,1.33A1.34,1.34,0,0,0,49.73,220.33Zm4,0a1.33,1.33,0,1,0-1.33,1.33A1.33,1.33,0,0,0,53.71,220.33Zm4,0a1.33,1.33,0,1,0-1.32,1.33A1.33,1.33,0,0,0,57.69,220.33Zm4,0a1.33,1.33,0,1,0-1.33,1.33A1.34,1.34,0,0,0,61.68,220.33ZM41.76,231a1.33,1.33,0,1,0-1.33,1.33A1.32,1.32,0,0,0,41.76,231Zm4,0a1.33,1.33,0,1,0-1.32,1.33A1.32,1.32,0,0,0,45.74,231Zm4,0a1.33,1.33,0,1,0-1.33,1.33A1.33,1.33,0,0,0,49.73,231Zm4,0a1.33,1.33,0,1,0-1.33,1.33A1.32,1.32,0,0,0,53.71,231Zm4,0a1.33,1.33,0,1,0-1.32,1.33A1.32,1.32,0,0,0,57.69,231Zm4,0a1.33,1.33,0,1,0-1.33,1.33A1.33,1.33,0,0,0,61.68,231Zm-6.31,15.27A1.33,1.33,0,1,0,54,247.55,1.32,1.32,0,0,0,55.37,246.22Zm4,0A1.33,1.33,0,1,0,58,247.55,1.32,1.32,0,0,0,59.35,246.22Zm4,0A1.33,1.33,0,1,0,62,247.55,1.33,1.33,0,0,0,63.34,246.22Zm4,0A1.33,1.33,0,1,0,66,247.55,1.32,1.32,0,0,0,67.32,246.22Zm4,0A1.33,1.33,0,1,0,70,247.55,1.32,1.32,0,0,0,71.3,246.22Zm4,0A1.33,1.33,0,1,0,74,247.55,1.33,1.33,0,0,0,75.29,246.22Zm-19.92,11A1.33,1.33,0,1,0,54,258.51,1.32,1.32,0,0,0,55.37,257.18Zm4,0A1.33,1.33,0,1,0,58,258.51,1.32,1.32,0,0,0,59.35,257.18Zm4,0A1.33,1.33,0,1,0,62,258.51,1.33,1.33,0,0,0,63.34,257.18Zm4,0A1.33,1.33,0,1,0,66,258.51,1.32,1.32,0,0,0,67.32,257.18Zm4,0A1.33,1.33,0,1,0,70,258.51,1.32,1.32,0,0,0,71.3,257.18Zm4,0A1.33,1.33,0,1,0,74,258.51,1.33,1.33,0,0,0,75.29,257.18Z" style="fill:#263238"></path><path d="M17.86,264H13.21a1.15,1.15,0,1,1,0-2.29h4.65a1.15,1.15,0,0,1,0,2.29ZM19,268.14A1.14,1.14,0,0,0,17.86,267H13.21a1.15,1.15,0,1,0,0,2.29h4.65A1.14,1.14,0,0,0,19,268.14Zm0,5.31a1.14,1.14,0,0,0-1.14-1.14H13.21a1.15,1.15,0,1,0,0,2.29h4.65A1.14,1.14,0,0,0,19,273.45Zm0,5.32a1.14,1.14,0,0,0-1.14-1.15H13.21a1.15,1.15,0,1,0,0,2.29h4.65A1.14,1.14,0,0,0,19,278.77Zm0,5.31a1.14,1.14,0,0,0-1.14-1.15H13.21a1.15,1.15,0,1,0,0,2.29h4.65A1.14,1.14,0,0,0,19,284.08Zm0,5.31a1.15,1.15,0,0,0-1.14-1.15H13.21a1.15,1.15,0,0,0,0,2.3h4.65A1.15,1.15,0,0,0,19,289.39Zm0,5.31a1.15,1.15,0,0,0-1.14-1.15H13.21a1.15,1.15,0,0,0,0,2.3h4.65A1.15,1.15,0,0,0,19,294.7ZM19,300a1.14,1.14,0,0,0-1.14-1.14H13.21a1.15,1.15,0,1,0,0,2.29h4.65A1.14,1.14,0,0,0,19,300Zm17.39-37.18a1.14,1.14,0,0,0-1.15-1.14H23.05a1.15,1.15,0,1,0,0,2.29H35.24A1.14,1.14,0,0,0,36.39,262.83Zm0,5.31A1.14,1.14,0,0,0,35.24,267H23.05a1.15,1.15,0,1,0,0,2.29H35.24A1.14,1.14,0,0,0,36.39,268.14Zm0,5.31a1.14,1.14,0,0,0-1.15-1.14H23.05a1.15,1.15,0,1,0,0,2.29H35.24A1.14,1.14,0,0,0,36.39,273.45Zm0,5.32a1.14,1.14,0,0,0-1.15-1.15H23.05a1.15,1.15,0,1,0,0,2.29H35.24A1.14,1.14,0,0,0,36.39,278.77Zm0,5.31a1.14,1.14,0,0,0-1.15-1.15H23.05a1.15,1.15,0,1,0,0,2.29H35.24A1.14,1.14,0,0,0,36.39,284.08ZM51,289.39a1.16,1.16,0,0,0-1.15-1.15H37.65a1.15,1.15,0,0,0,0,2.3h12.2A1.16,1.16,0,0,0,51,289.39Zm0,5.31a1.16,1.16,0,0,0-1.15-1.15H37.65a1.15,1.15,0,0,0,0,2.3h12.2A1.16,1.16,0,0,0,51,294.7ZM51,300a1.15,1.15,0,0,0-1.15-1.14H37.65a1.15,1.15,0,0,0,0,2.29h12.2A1.15,1.15,0,0,0,51,300Zm-9.24-37.18a1.33,1.33,0,1,0-1.33,1.33A1.33,1.33,0,0,0,41.76,262.83Zm4,0a1.33,1.33,0,1,0-1.32,1.33A1.33,1.33,0,0,0,45.74,262.83Zm4,0a1.33,1.33,0,1,0-1.33,1.33A1.34,1.34,0,0,0,49.73,262.83Zm4,0a1.33,1.33,0,1,0-1.33,1.33A1.33,1.33,0,0,0,53.71,262.83Zm4,0a1.33,1.33,0,1,0-1.32,1.33A1.33,1.33,0,0,0,57.69,262.83Zm4,0a1.33,1.33,0,1,0-1.33,1.33A1.34,1.34,0,0,0,61.68,262.83ZM41.76,273.46a1.33,1.33,0,1,0-1.33,1.32A1.32,1.32,0,0,0,41.76,273.46Zm4,0a1.33,1.33,0,1,0-1.32,1.32A1.32,1.32,0,0,0,45.74,273.46Zm4,0a1.33,1.33,0,1,0-1.33,1.32A1.33,1.33,0,0,0,49.73,273.46Zm4,0a1.33,1.33,0,1,0-1.33,1.32A1.32,1.32,0,0,0,53.71,273.46Zm4,0a1.33,1.33,0,1,0-1.32,1.32A1.32,1.32,0,0,0,57.69,273.46Zm4,0a1.33,1.33,0,1,0-1.33,1.32A1.33,1.33,0,0,0,61.68,273.46Zm-6.31,15.26A1.33,1.33,0,1,0,54,290.05,1.32,1.32,0,0,0,55.37,288.72Zm4,0A1.33,1.33,0,1,0,58,290.05,1.32,1.32,0,0,0,59.35,288.72Zm4,0A1.33,1.33,0,1,0,62,290.05,1.33,1.33,0,0,0,63.34,288.72Zm4,0A1.33,1.33,0,1,0,66,290.05,1.32,1.32,0,0,0,67.32,288.72Zm4,0A1.33,1.33,0,1,0,70,290.05,1.32,1.32,0,0,0,71.3,288.72Zm4,0A1.33,1.33,0,1,0,74,290.05,1.33,1.33,0,0,0,75.29,288.72Zm-19.92,11A1.33,1.33,0,1,0,54,301,1.33,1.33,0,0,0,55.37,299.68Zm4,0A1.33,1.33,0,1,0,58,301,1.33,1.33,0,0,0,59.35,299.68Zm4,0A1.33,1.33,0,1,0,62,301,1.34,1.34,0,0,0,63.34,299.68Zm4,0A1.33,1.33,0,1,0,66,301,1.33,1.33,0,0,0,67.32,299.68Zm4,0A1.33,1.33,0,1,0,70,301,1.33,1.33,0,0,0,71.3,299.68Zm4,0A1.33,1.33,0,1,0,74,301,1.34,1.34,0,0,0,75.29,299.68Z" style="fill:#263238"></path><path d="M17.86,307.51H13.21a1.15,1.15,0,0,1,0-2.3h4.65a1.15,1.15,0,0,1,0,2.3ZM19,311.67a1.14,1.14,0,0,0-1.14-1.14H13.21a1.15,1.15,0,1,0,0,2.29h4.65A1.14,1.14,0,0,0,19,311.67ZM19,317a1.14,1.14,0,0,0-1.14-1.14H13.21a1.15,1.15,0,1,0,0,2.29h4.65A1.14,1.14,0,0,0,19,317Zm0,5.31a1.14,1.14,0,0,0-1.14-1.14H13.21a1.15,1.15,0,1,0,0,2.29h4.65A1.14,1.14,0,0,0,19,322.29Zm0,5.31a1.14,1.14,0,0,0-1.14-1.14H13.21a1.15,1.15,0,1,0,0,2.29h4.65A1.14,1.14,0,0,0,19,327.6Zm0,5.32a1.14,1.14,0,0,0-1.14-1.15H13.21a1.15,1.15,0,1,0,0,2.29h4.65A1.14,1.14,0,0,0,19,332.92Zm0,5.31a1.14,1.14,0,0,0-1.14-1.15H13.21a1.15,1.15,0,1,0,0,2.29h4.65A1.14,1.14,0,0,0,19,338.23Zm0,5.31a1.15,1.15,0,0,0-1.14-1.15H13.21a1.15,1.15,0,0,0,0,2.3h4.65A1.15,1.15,0,0,0,19,343.54Zm17.39-37.18a1.15,1.15,0,0,0-1.15-1.15H23.05a1.15,1.15,0,1,0,0,2.3H35.24A1.15,1.15,0,0,0,36.39,306.36Zm0,5.31a1.14,1.14,0,0,0-1.15-1.14H23.05a1.15,1.15,0,1,0,0,2.29H35.24A1.14,1.14,0,0,0,36.39,311.67Zm0,5.31a1.14,1.14,0,0,0-1.15-1.14H23.05a1.15,1.15,0,1,0,0,2.29H35.24A1.14,1.14,0,0,0,36.39,317Zm0,5.31a1.14,1.14,0,0,0-1.15-1.14H23.05a1.15,1.15,0,1,0,0,2.29H35.24A1.14,1.14,0,0,0,36.39,322.29Zm0,5.31a1.14,1.14,0,0,0-1.15-1.14H23.05a1.15,1.15,0,1,0,0,2.29H35.24A1.14,1.14,0,0,0,36.39,327.6ZM51,332.92a1.15,1.15,0,0,0-1.15-1.15H37.65a1.15,1.15,0,0,0,0,2.29h12.2A1.15,1.15,0,0,0,51,332.92Zm0,5.31a1.15,1.15,0,0,0-1.15-1.15H37.65a1.15,1.15,0,0,0,0,2.29h12.2A1.15,1.15,0,0,0,51,338.23Zm0,5.31a1.16,1.16,0,0,0-1.15-1.15H37.65a1.15,1.15,0,0,0,0,2.3h12.2A1.16,1.16,0,0,0,51,343.54Zm-9.24-37.18a1.33,1.33,0,1,0-1.33,1.33A1.33,1.33,0,0,0,41.76,306.36Zm4,0a1.33,1.33,0,1,0-1.32,1.33A1.33,1.33,0,0,0,45.74,306.36Zm4,0a1.33,1.33,0,1,0-1.33,1.33A1.34,1.34,0,0,0,49.73,306.36Zm4,0a1.33,1.33,0,1,0-1.33,1.33A1.33,1.33,0,0,0,53.71,306.36Zm4,0a1.33,1.33,0,1,0-1.32,1.33A1.33,1.33,0,0,0,57.69,306.36Zm4,0a1.33,1.33,0,1,0-1.33,1.33A1.34,1.34,0,0,0,61.68,306.36ZM41.76,317a1.33,1.33,0,1,0-1.33,1.33A1.33,1.33,0,0,0,41.76,317Zm4,0a1.33,1.33,0,1,0-1.32,1.33A1.33,1.33,0,0,0,45.74,317Zm4,0a1.33,1.33,0,1,0-1.33,1.33A1.34,1.34,0,0,0,49.73,317Zm4,0a1.33,1.33,0,1,0-1.33,1.33A1.33,1.33,0,0,0,53.71,317Zm4,0a1.33,1.33,0,1,0-1.32,1.33A1.33,1.33,0,0,0,57.69,317Zm4,0a1.33,1.33,0,1,0-1.33,1.33A1.34,1.34,0,0,0,61.68,317Zm-6.31,15.27A1.33,1.33,0,1,0,54,333.58,1.33,1.33,0,0,0,55.37,332.25Zm4,0A1.33,1.33,0,1,0,58,333.58,1.33,1.33,0,0,0,59.35,332.25Zm4,0A1.33,1.33,0,1,0,62,333.58,1.34,1.34,0,0,0,63.34,332.25Zm4,0A1.33,1.33,0,1,0,66,333.58,1.33,1.33,0,0,0,67.32,332.25Zm4,0A1.33,1.33,0,1,0,70,333.58,1.33,1.33,0,0,0,71.3,332.25Zm4,0A1.33,1.33,0,1,0,74,333.58,1.34,1.34,0,0,0,75.29,332.25Zm-19.92,11A1.33,1.33,0,1,0,54,344.54,1.32,1.32,0,0,0,55.37,343.21Zm4,0A1.33,1.33,0,1,0,58,344.54,1.32,1.32,0,0,0,59.35,343.21Zm4,0A1.33,1.33,0,1,0,62,344.54,1.33,1.33,0,0,0,63.34,343.21Zm4,0A1.33,1.33,0,1,0,66,344.54,1.32,1.32,0,0,0,67.32,343.21Zm4,0A1.33,1.33,0,1,0,70,344.54,1.32,1.32,0,0,0,71.3,343.21Zm4,0A1.33,1.33,0,1,0,74,344.54,1.33,1.33,0,0,0,75.29,343.21Z" style="fill:#263238"></path><path d="M89.21,221.48H84.56a1.15,1.15,0,0,1,0-2.3h4.65a1.15,1.15,0,0,1,0,2.3Zm1.15,4.16a1.15,1.15,0,0,0-1.15-1.14H84.56a1.15,1.15,0,0,0,0,2.29h4.65A1.15,1.15,0,0,0,90.36,225.64Zm0,5.31a1.15,1.15,0,0,0-1.15-1.14H84.56a1.15,1.15,0,0,0,0,2.29h4.65A1.15,1.15,0,0,0,90.36,231Zm0,5.31a1.15,1.15,0,0,0-1.15-1.14H84.56a1.15,1.15,0,0,0,0,2.29h4.65A1.15,1.15,0,0,0,90.36,236.26Zm0,5.32a1.15,1.15,0,0,0-1.15-1.15H84.56a1.15,1.15,0,0,0,0,2.29h4.65A1.15,1.15,0,0,0,90.36,241.58Zm0,5.31a1.15,1.15,0,0,0-1.15-1.15H84.56a1.15,1.15,0,0,0,0,2.29h4.65A1.15,1.15,0,0,0,90.36,246.89Zm0,5.31a1.16,1.16,0,0,0-1.15-1.15H84.56a1.15,1.15,0,0,0,0,2.3h4.65A1.16,1.16,0,0,0,90.36,252.2Zm0,5.31a1.16,1.16,0,0,0-1.15-1.15H84.56a1.15,1.15,0,0,0,0,2.3h4.65A1.16,1.16,0,0,0,90.36,257.51Zm17.38-37.18a1.15,1.15,0,0,0-1.14-1.15H94.4a1.15,1.15,0,0,0,0,2.3h12.2A1.15,1.15,0,0,0,107.74,220.33Zm0,5.31a1.14,1.14,0,0,0-1.14-1.14H94.4a1.15,1.15,0,1,0,0,2.29h12.2A1.14,1.14,0,0,0,107.74,225.64Zm0,5.31a1.14,1.14,0,0,0-1.14-1.14H94.4a1.15,1.15,0,1,0,0,2.29h12.2A1.14,1.14,0,0,0,107.74,231Zm0,5.31a1.14,1.14,0,0,0-1.14-1.14H94.4a1.15,1.15,0,1,0,0,2.29h12.2A1.14,1.14,0,0,0,107.74,236.26Zm0,5.32a1.14,1.14,0,0,0-1.14-1.15H94.4a1.15,1.15,0,1,0,0,2.29h12.2A1.14,1.14,0,0,0,107.74,241.58Zm14.61,5.31a1.14,1.14,0,0,0-1.15-1.15H109a1.15,1.15,0,0,0,0,2.29h12.2A1.14,1.14,0,0,0,122.35,246.89Zm0,5.31a1.15,1.15,0,0,0-1.15-1.15H109a1.15,1.15,0,0,0,0,2.3h12.2A1.15,1.15,0,0,0,122.35,252.2Zm0,5.31a1.15,1.15,0,0,0-1.15-1.15H109a1.15,1.15,0,0,0,0,2.3h12.2A1.15,1.15,0,0,0,122.35,257.51Zm-9.24-37.18a1.33,1.33,0,1,0-1.33,1.33A1.33,1.33,0,0,0,113.11,220.33Zm4,0a1.33,1.33,0,1,0-1.32,1.33A1.33,1.33,0,0,0,117.09,220.33Zm4,0a1.33,1.33,0,1,0-1.33,1.33A1.34,1.34,0,0,0,121.08,220.33Zm4,0a1.33,1.33,0,1,0-1.33,1.33A1.33,1.33,0,0,0,125.06,220.33Zm4,0a1.33,1.33,0,1,0-1.33,1.33A1.34,1.34,0,0,0,129.05,220.33Zm4,0a1.33,1.33,0,1,0-1.33,1.33A1.34,1.34,0,0,0,133,220.33ZM113.11,231a1.33,1.33,0,1,0-1.33,1.33A1.32,1.32,0,0,0,113.11,231Zm4,0a1.33,1.33,0,1,0-1.32,1.33A1.32,1.32,0,0,0,117.09,231Zm4,0a1.33,1.33,0,1,0-1.33,1.33A1.33,1.33,0,0,0,121.08,231Zm4,0a1.33,1.33,0,1,0-1.33,1.33A1.32,1.32,0,0,0,125.06,231Zm4,0a1.33,1.33,0,1,0-1.33,1.33A1.33,1.33,0,0,0,129.05,231Zm4,0a1.33,1.33,0,1,0-1.33,1.33A1.33,1.33,0,0,0,133,231Zm-6.31,15.27a1.33,1.33,0,1,0-1.33,1.33A1.32,1.32,0,0,0,126.72,246.22Zm4,0a1.33,1.33,0,1,0-1.33,1.33A1.33,1.33,0,0,0,130.71,246.22Zm4,0a1.33,1.33,0,1,0-1.33,1.33A1.33,1.33,0,0,0,134.69,246.22Zm4,0a1.33,1.33,0,1,0-1.33,1.33A1.32,1.32,0,0,0,138.67,246.22Zm4,0a1.33,1.33,0,1,0-1.33,1.33A1.33,1.33,0,0,0,142.66,246.22Zm4,0a1.33,1.33,0,1,0-1.33,1.33A1.33,1.33,0,0,0,146.64,246.22Zm-19.92,11a1.33,1.33,0,1,0-1.33,1.33A1.32,1.32,0,0,0,126.72,257.18Zm4,0a1.33,1.33,0,1,0-1.33,1.33A1.33,1.33,0,0,0,130.71,257.18Zm4,0a1.33,1.33,0,1,0-1.33,1.33A1.33,1.33,0,0,0,134.69,257.18Zm4,0a1.33,1.33,0,1,0-1.33,1.33A1.32,1.32,0,0,0,138.67,257.18Zm4,0a1.33,1.33,0,1,0-1.33,1.33A1.33,1.33,0,0,0,142.66,257.18Zm4,0a1.33,1.33,0,1,0-1.33,1.33A1.33,1.33,0,0,0,146.64,257.18Z" style="fill:#263238"></path><path d="M89.21,265H84.56a1.15,1.15,0,0,1,0-2.29h4.65a1.15,1.15,0,1,1,0,2.29Zm1.15,4.17A1.16,1.16,0,0,0,89.21,268H84.56a1.15,1.15,0,0,0,0,2.3h4.65A1.16,1.16,0,0,0,90.36,269.17Zm0,5.31a1.16,1.16,0,0,0-1.15-1.15H84.56a1.15,1.15,0,0,0,0,2.3h4.65A1.16,1.16,0,0,0,90.36,274.48Zm0,5.31a1.15,1.15,0,0,0-1.15-1.14H84.56a1.15,1.15,0,0,0,0,2.29h4.65A1.15,1.15,0,0,0,90.36,279.79Zm0,5.31A1.15,1.15,0,0,0,89.21,284H84.56a1.15,1.15,0,0,0,0,2.29h4.65A1.15,1.15,0,0,0,90.36,285.1Zm0,5.32a1.15,1.15,0,0,0-1.15-1.15H84.56a1.15,1.15,0,0,0,0,2.29h4.65A1.15,1.15,0,0,0,90.36,290.42Zm0,5.31a1.15,1.15,0,0,0-1.15-1.15H84.56a1.15,1.15,0,0,0,0,2.29h4.65A1.15,1.15,0,0,0,90.36,295.73Zm0,5.31a1.15,1.15,0,0,0-1.15-1.15H84.56a1.15,1.15,0,0,0,0,2.29h4.65A1.15,1.15,0,0,0,90.36,301Zm17.38-37.18a1.14,1.14,0,0,0-1.14-1.15H94.4a1.15,1.15,0,1,0,0,2.29h12.2A1.14,1.14,0,0,0,107.74,263.86Zm0,5.31A1.15,1.15,0,0,0,106.6,268H94.4a1.15,1.15,0,0,0,0,2.3h12.2A1.15,1.15,0,0,0,107.74,269.17Zm0,5.31a1.15,1.15,0,0,0-1.14-1.15H94.4a1.15,1.15,0,0,0,0,2.3h12.2A1.15,1.15,0,0,0,107.74,274.48Zm0,5.31a1.14,1.14,0,0,0-1.14-1.14H94.4a1.15,1.15,0,1,0,0,2.29h12.2A1.14,1.14,0,0,0,107.74,279.79Zm0,5.31A1.14,1.14,0,0,0,106.6,284H94.4a1.15,1.15,0,1,0,0,2.29h12.2A1.14,1.14,0,0,0,107.74,285.1Zm14.61,5.32a1.14,1.14,0,0,0-1.15-1.15H109a1.15,1.15,0,0,0,0,2.29h12.2A1.14,1.14,0,0,0,122.35,290.42Zm0,5.31a1.14,1.14,0,0,0-1.15-1.15H109a1.15,1.15,0,0,0,0,2.29h12.2A1.14,1.14,0,0,0,122.35,295.73Zm0,5.31a1.14,1.14,0,0,0-1.15-1.15H109a1.15,1.15,0,0,0,0,2.29h12.2A1.14,1.14,0,0,0,122.35,301Zm-9.24-37.18a1.33,1.33,0,1,0-1.33,1.33A1.33,1.33,0,0,0,113.11,263.86Zm4,0a1.33,1.33,0,1,0-1.32,1.33A1.33,1.33,0,0,0,117.09,263.86Zm4,0a1.33,1.33,0,1,0-1.33,1.33A1.34,1.34,0,0,0,121.08,263.86Zm4,0a1.33,1.33,0,1,0-1.33,1.33A1.33,1.33,0,0,0,125.06,263.86Zm4,0a1.33,1.33,0,1,0-1.33,1.33A1.34,1.34,0,0,0,129.05,263.86Zm4,0a1.33,1.33,0,1,0-1.33,1.33A1.34,1.34,0,0,0,133,263.86Zm-19.92,10.62a1.33,1.33,0,1,0-1.33,1.33A1.33,1.33,0,0,0,113.11,274.48Zm4,0a1.33,1.33,0,1,0-1.32,1.33A1.33,1.33,0,0,0,117.09,274.48Zm4,0a1.33,1.33,0,1,0-1.33,1.33A1.34,1.34,0,0,0,121.08,274.48Zm4,0a1.33,1.33,0,1,0-1.33,1.33A1.33,1.33,0,0,0,125.06,274.48Zm4,0a1.33,1.33,0,1,0-1.33,1.33A1.34,1.34,0,0,0,129.05,274.48Zm4,0a1.33,1.33,0,1,0-1.33,1.33A1.34,1.34,0,0,0,133,274.48Zm-6.31,15.27a1.33,1.33,0,1,0-1.33,1.33A1.33,1.33,0,0,0,126.72,289.75Zm4,0a1.33,1.33,0,1,0-1.33,1.33A1.34,1.34,0,0,0,130.71,289.75Zm4,0a1.33,1.33,0,1,0-1.33,1.33A1.34,1.34,0,0,0,134.69,289.75Zm4,0a1.33,1.33,0,1,0-1.33,1.33A1.33,1.33,0,0,0,138.67,289.75Zm4,0a1.33,1.33,0,1,0-1.33,1.33A1.34,1.34,0,0,0,142.66,289.75Zm4,0a1.33,1.33,0,1,0-1.33,1.33A1.34,1.34,0,0,0,146.64,289.75Zm-19.92,11a1.33,1.33,0,1,0-1.33,1.32A1.32,1.32,0,0,0,126.72,300.71Zm4,0a1.33,1.33,0,1,0-1.33,1.32A1.33,1.33,0,0,0,130.71,300.71Zm4,0a1.33,1.33,0,1,0-1.33,1.32A1.33,1.33,0,0,0,134.69,300.71Zm4,0a1.33,1.33,0,1,0-1.33,1.32A1.32,1.32,0,0,0,138.67,300.71Zm4,0a1.33,1.33,0,1,0-1.33,1.32A1.33,1.33,0,0,0,142.66,300.71Zm4,0a1.33,1.33,0,1,0-1.33,1.32A1.33,1.33,0,0,0,146.64,300.71Z" style="fill:#263238"></path></g><g id="freepik--Gears--inject-257"><path d="M184.9,88V76.82l-14.36-2.23a37,37,0,0,0-5-12.45l8.69-11.9-7.91-7.91L154.6,50.9a37,37,0,0,0-12.32-5.29L140,31.06H128.82l-2.23,14.35a37,37,0,0,0-12.45,5l-11.9-8.69-7.91,7.91,8.57,11.74a37,37,0,0,0-5.29,12.32L83.06,75.94V87.13l14.35,2.23a37,37,0,0,0,5,12.45l-8.69,11.9,7.91,7.91,11.74-8.57a37,37,0,0,0,12.32,5.29l2.27,14.56h11.19l2.23-14.36a37,37,0,0,0,12.45-5l11.9,8.69,7.91-7.91-8.57-11.74a37,37,0,0,0,5.29-12.32ZM134,107.63A25.66,25.66,0,1,1,159.63,82,25.66,25.66,0,0,1,134,107.63Z" style="fill:none;stroke:#263238;stroke-linecap:round;stroke-linejoin:round"></path><path d="M108.24,151.09v-6l-7.75-1.21a20.09,20.09,0,0,0-2.69-6.72l4.69-6.43-4.27-4.27-6.34,4.63a19.74,19.74,0,0,0-6.65-2.85L84,120.34H78l-1.2,7.75A19.68,19.68,0,0,0,70,130.78l-6.43-4.7-4.27,4.27L64,136.69a20,20,0,0,0-2.86,6.65l-7.86,1.23v6L61,151.82a20.26,20.26,0,0,0,2.69,6.72L59,165l4.27,4.27,6.34-4.62a20.14,20.14,0,0,0,6.65,2.85l1.22,7.86h6l1.2-7.75a20,20,0,0,0,6.73-2.69l6.42,4.69,4.27-4.27L97.52,159a20.1,20.1,0,0,0,2.86-6.66ZM80.75,161.68a13.85,13.85,0,1,1,13.84-13.85A13.85,13.85,0,0,1,80.75,161.68Z" style="fill:none;stroke:#263238;stroke-linecap:round;stroke-linejoin:round"></path><path d="M219.15,384V372.77l-14.35-2.24a37.38,37.38,0,0,0-5-12.45l8.69-11.9-7.91-7.91-11.73,8.57a37,37,0,0,0-12.32-5.28L174.27,327H163.08l-2.24,14.35a37.08,37.08,0,0,0-12.45,5l-11.9-8.7-7.91,7.92,8.57,11.73a37,37,0,0,0-5.28,12.32l-14.56,2.27v11.19l14.35,2.24a37.15,37.15,0,0,0,5,12.45L128,409.66l7.91,7.91L147.6,409a37,37,0,0,0,12.32,5.28l2.27,14.56h11.19l2.23-14.35a37,37,0,0,0,12.45-5l11.9,8.7,7.92-7.92-8.58-11.73a37.22,37.22,0,0,0,5.29-12.32Zm-50.92,19.61a25.65,25.65,0,1,1,25.65-25.65A25.65,25.65,0,0,1,168.23,403.57Z" style="fill:none;stroke:#263238;stroke-linecap:round;stroke-linejoin:round"></path><path d="M142.49,447v-6l-7.75-1.21a20,20,0,0,0-2.69-6.72l4.69-6.42-4.27-4.27L126.14,427a20.29,20.29,0,0,0-6.66-2.85l-1.22-7.86h-6L111,424a19.88,19.88,0,0,0-6.72,2.69L97.86,422l-4.27,4.27,4.63,6.33a19.87,19.87,0,0,0-2.85,6.66l-7.86,1.22v6l7.75,1.21A19.68,19.68,0,0,0,98,454.48l-4.7,6.43,4.27,4.27,6.34-4.63a19.82,19.82,0,0,0,6.65,2.85l1.23,7.86h6l1.21-7.74a20.26,20.26,0,0,0,6.72-2.69l6.42,4.69,4.27-4.27-4.62-6.34a20.23,20.23,0,0,0,2.85-6.65ZM115,457.62a13.85,13.85,0,1,1,13.85-13.85A13.85,13.85,0,0,1,115,457.62Z" style="fill:none;stroke:#263238;stroke-linecap:round;stroke-linejoin:round"></path></g><g id="freepik--symbols-and-numbers--inject-257"><path d="M199.06,475.78a11.46,11.46,0,0,1-9.38,4.51q-5.4,0-9.83-5.07c-3-3.37-4.44-7.87-4.44-13.47q0-10.85,8.6-18.61a26,26,0,0,1,17.25-6.51l.15,1a30.08,30.08,0,0,0-6.61,1.92,15.64,15.64,0,0,0-5,3.39,25.81,25.81,0,0,0-4.21,5.62,23.71,23.71,0,0,0-2.7,6.75,22.14,22.14,0,0,1,3.29-1.72,13.26,13.26,0,0,1,4.94-1,11,11,0,0,1,8.19,3.38q3.33,3.38,3.32,9.63A15.8,15.8,0,0,1,199.06,475.78Zm-3.3-15q-2.14-5.28-7.3-5.28c-3.18,0-5.28.94-6.33,2.83a12.11,12.11,0,0,0-.92,5.52,23.77,23.77,0,0,0,2.14,9.8q2.13,4.78,6.73,4.79a5.58,5.58,0,0,0,5.31-3.12,15.26,15.26,0,0,0,1.66-7.29A19.1,19.1,0,0,0,195.76,460.76Z" style="fill:#263238"></path><path d="M52.18,468.56a134.18,134.18,0,0,0-1.9-15.16,12.1,12.1,0,0,0-3.58-6.68,6.12,6.12,0,0,0-4.55-1.79,5.4,5.4,0,0,0-3.76,1.9,5.67,5.67,0,0,0-1.45,4.76,12.14,12.14,0,0,0,1.39,3.65l-.71.55q-2.86-3.87-2.64-6.91a8.55,8.55,0,0,1,2.07-5.15A7.49,7.49,0,0,1,42.37,441a7.29,7.29,0,0,1,5.41,1.89,10.65,10.65,0,0,1,3.35,6,141.08,141.08,0,0,1,1.71,14.83L59,456.59a5.79,5.79,0,0,0,1.46-2.39,6,6,0,0,0-.54-2.86l.54-.24,2.8,5.46L52.53,468.87Z" style="fill:#263238"></path><path d="M58.93,107.15c-2.73-3-2.9-6.69-1.14-10.58l-.14-.08c-3.73,1.18-6.72.19-8.59-1.83-3.44-3.72-2.63-9.15,1.49-13,4.55-4.2,9.46-3.45,12.16-.52,1.83,2,2.83,5,1.21,9l.1.11c4-1.54,7.7-1.15,10.33,1.7,3.77,4.08,2.8,10.06-1.67,14.2C67.76,110.77,62.1,110.59,58.93,107.15ZM51.86,91.67c2.16,2.35,5.1,2,8.48.2,1.39-2.56,1.6-5.44-.36-7.57-1.74-1.87-4.66-2.79-7.51-.15C49.83,86.58,50,89.65,51.86,91.67Zm19.58,3.66c-2.64-2.85-5.89-2.39-9.9-.35-2,3.33-1.83,6.5.24,8.74,2.09,2.48,5.84,2.91,8.83.14S73.67,97.75,71.44,95.33Z" style="fill:#263238"></path><rect x="31.44" y="382.82" width="34.4" height="6.47"></rect><path d="M48.64,379.28a5,5,0,1,0-5-5A5,5,0,0,0,48.64,379.28Z"></path><path d="M48.64,394.2a5,5,0,1,0,5,5A5,5,0,0,0,48.64,394.2Z"></path></g><g id="freepik--Brain--inject-257"><path d="M377.52,274.66l1.23-5.82C380,263,376.91,246.2,371.4,234s-10.71-32.13-14.07-39.47-6.74-19.59-6.74-19.59,0-3.36-2.75-13.16S339,141.84,339,141.84C334.68,128.38,319.38,122,319.38,122s-2.45-7.34-16.53-13.77-33.66-7-41.62-2.45-10.09,18.67-10.09,18.67-1.11,1.94-1,12.38h-.13a.85.85,0,0,0-.23,0c.15-10.46-1-12.4-1-12.4s-2.14-14.08-10.09-18.67-27.55-4-41.62,2.45S180.62,122,180.62,122s-15.3,6.43-19.58,19.89c0,0-6.13,10.1-8.88,19.89s-2.75,13.16-2.75,13.16-3.37,12.24-6.74,19.59S134.11,221.71,128.6,234,120,263,121.25,268.84l1.23,5.82s-3.37,11.63-.62,27.84c0,0,.31,23.87,7.35,33.36,0,0,4.9,29.38,23.87,41.31,0,0,10.4,15.61,25.4,20.2,0,0,11.63,8.88,19.58,10.1,0,0,13.16,10.71,26.93,10.71s18.67-1.83,22-8.57a24.88,24.88,0,0,0,2.1-7.29,1.82,1.82,0,0,0,1.75.05,24.94,24.94,0,0,0,2.09,7.24c3.37,6.74,8.26,8.57,22,8.57s26.93-10.71,26.93-10.71c7.95-1.22,19.58-10.1,19.58-10.1,15-4.59,25.4-20.2,25.4-20.2,19-11.93,23.87-41.31,23.87-41.31,7-9.49,7.35-33.36,7.35-33.36C380.89,286.29,377.52,274.66,377.52,274.66Z" style="fill:#263238"></path><path d="M248.86,110.7S246.72,96.62,238.77,92s-27.55-4-41.62,2.45-16.53,13.77-16.53,13.77-15.3,6.43-19.58,19.89c0,0-6.13,10.1-8.88,19.89s-2.75,13.16-2.75,13.16-3.37,12.24-6.74,19.59S134.11,208,128.6,220.25s-8.57,29.08-7.35,34.89l1.23,5.81s-3.37,11.63-.62,27.85c0,0,.31,23.87,7.35,33.36,0,0,4.9,29.38,23.87,41.31,0,0,10.4,15.61,25.4,20.2,0,0,11.63,8.88,19.58,10.1,0,0,13.16,10.71,26.93,10.71s18.67-1.84,22-8.57,2.75-18.36,2.45-23.87-3.37-21.42-3.37-21.42S248,323.08,248,318.18a54.93,54.93,0,0,0-.92-9.49s2.75-11,1.22-16.52a86.12,86.12,0,0,1-2.14-9.79s4.28-2.76,3.06-11S247,258.51,247,258.51s3.67-9.8,3.36-18.06S248,228.21,248,228.21s1.22-6.12.61-10.1a42.88,42.88,0,0,1-.61-5.51,73.15,73.15,0,0,0,2.14-15.6c0-7.35-.31-9.49-.61-10.41s-1.84-9.79-1.84-9.79l.61-25.4s1.23-14.69,1.53-26.63S248.86,110.7,248.86,110.7Z" style="fill:#FFFFFF;stroke:#263238;stroke-miterlimit:10"></path><path d="M193,125a34.75,34.75,0,0,1,2.69-2.75c1-.87,1.92-1.81,2.94-2.71s2-1.9,2.94-2.87,1.88-2,2.8-3.15a32.14,32.14,0,0,0,2.44-3.57,18.79,18.79,0,0,0,2.77-8.2l-.25-.09a25.08,25.08,0,0,1-1.92,3.62c-.72,1.16-1.5,2.29-2.32,3.38a62.22,62.22,0,0,1-5.46,6.14c-1.89,2-3.84,3.94-5.6,6.09a19.29,19.29,0,0,0-2.32,3.45,7.78,7.78,0,0,0-.89,4.07l.27,0A9.09,9.09,0,0,1,193,125Z" style="fill:#263238"></path><path d="M217.25,123.77a12.59,12.59,0,0,1,3.55,2.47,18.44,18.44,0,0,1,2.8,3.35c.38.62.74,1.26,1.11,1.89l1,2,.25-.11a10.74,10.74,0,0,0,0-2.53,15.36,15.36,0,0,0-.6-2.38,12,12,0,0,0-.5-1.1c.17-.89.35-1.78.55-2.67.37-1.6.82-3.18,1.33-4.73a41.59,41.59,0,0,1,1.76-4.58,36,36,0,0,1,2.38-4.29l-.22-.16a11.3,11.3,0,0,0-4.11,3.53,16.81,16.81,0,0,0-2.37,4.66,17.74,17.74,0,0,0-.88,5.11c0,.27,0,.54,0,.82a7.07,7.07,0,0,0-.71-.74,9.68,9.68,0,0,0-4.53-2.49,6.39,6.39,0,0,0-5.11.8l0,.27A9.77,9.77,0,0,1,217.25,123.77Z" style="fill:#263238"></path><path d="M242.61,141.88a16.41,16.41,0,0,1,2.82,2.57,11.43,11.43,0,0,1,2,3.22l.3.89c.09.31.13.62.2.93l.1.47,0,.48.06.95h.27a6,6,0,0,0,1.05-4.5,8.47,8.47,0,0,0-2-4.21,9.39,9.39,0,0,0-3.62-2.58,7.5,7.5,0,0,0-4.45-.44l-.09.26a15.38,15.38,0,0,1,1.69.91C241.55,141.16,242.09,141.51,242.61,141.88Z" style="fill:#263238"></path><path d="M228.74,170.2a40,40,0,0,1-2.63,3.47,34.48,34.48,0,0,1-3,3.17,21,21,0,0,1-3.4,2.69l.13.24a14.34,14.34,0,0,0,4.26-1.86,23.33,23.33,0,0,0,3.64-2.85,29.36,29.36,0,0,0,3.09-3.41,19.32,19.32,0,0,0,1.34-2c.42-.7.78-1.42,1.14-2.14a30.45,30.45,0,0,0,1.45-4.49,29.63,29.63,0,0,0,.65-4.56,25.45,25.45,0,0,0-.91-9.05h-.27a63.14,63.14,0,0,1-.94,8.67,38.08,38.08,0,0,1-2.45,8.34A22.23,22.23,0,0,1,228.74,170.2Z" style="fill:#263238"></path><path d="M226.51,151.2a10,10,0,0,0-4.87-1.91l-.15.23a19.72,19.72,0,0,1,1.78,1.51c.58.53,1.13,1.08,1.67,1.65a25.45,25.45,0,0,1,2.82,3.72,20,20,0,0,1,2.11,4.15l.39,1.1.3,1.13c.24.75.31,1.53.48,2.3l.27,0a9.35,9.35,0,0,0,.59-5.23A12.62,12.62,0,0,0,230,155,13.29,13.29,0,0,0,226.51,151.2Z" style="fill:#263238"></path><path d="M251.11,192.22a12.21,12.21,0,0,0-1.52-4.32,13.91,13.91,0,0,0-2.79-3.45,10.47,10.47,0,0,0-4-2.32l-.21.18c.85,1.1,1.67,2.24,2.47,3.38s1.53,2.34,2.21,3.55a24.36,24.36,0,0,1,1.84,3.73,11.2,11.2,0,0,1,.87,4h.27a5.32,5.32,0,0,0,.61-1.13,11.44,11.44,0,0,0,.3-1.22A9.86,9.86,0,0,0,251.11,192.22Z" style="fill:#263238"></path><path d="M224.08,198.67l0,.26c2.31.51,4.6,1.16,6.85,1.89a52.84,52.84,0,0,1,6.57,2.67,29.9,29.9,0,0,1,6,3.72,16.62,16.62,0,0,1,2.49,2.47,12.8,12.8,0,0,1,1.87,3l.25-.1a11,11,0,0,0-3.24-7,21,21,0,0,0-6.19-4.5,26.34,26.34,0,0,0-7.09-2.28A20.36,20.36,0,0,0,224.08,198.67Z" style="fill:#263238"></path><path d="M149.14,205.06a22.25,22.25,0,0,1,5.1-2.21,18.79,18.79,0,0,1,2.63-.59,10.36,10.36,0,0,1,1.31-.13c.4,0,.78,0,1.18.06a12.86,12.86,0,0,1,4.72,1.78,70.63,70.63,0,0,1,8.95,6.72,85.33,85.33,0,0,0,8.13,6.17,5.76,5.76,0,0,0-1.1.85,6.07,6.07,0,0,0-1.66,3.18,5,5,0,0,0,.65,3.54l.27,0a13.43,13.43,0,0,1,1-2.62,8.91,8.91,0,0,1,1.64-2.25,5.82,5.82,0,0,1,1.72-1.27,31.14,31.14,0,0,0,4.78,1.91,34,34,0,0,0,6.1,1.21,44.4,44.4,0,0,0,6.09.18c1,0,2-.09,3-.17s2-.21,3-.36l.54-.08a11.72,11.72,0,0,0-1.16,2.29,11.3,11.3,0,0,0-.55,2.63,9.62,9.62,0,0,0,.12,2.68l.26,0a18.26,18.26,0,0,0,1.77-2.42,12.09,12.09,0,0,0,.95-2,10.67,10.67,0,0,0,.5-2.14,13.24,13.24,0,0,0,.12-1.36,70.36,70.36,0,0,0,20-6.22l-.09-.26A94.14,94.14,0,0,1,206.44,219a53.72,53.72,0,0,1-11.55-.05,23.94,23.94,0,0,1-.4-2.91q-.15-1.72-.15-3.45a43.07,43.07,0,0,1,.55-6.82,49.84,49.84,0,0,1,1.45-6.65c.64-2.2,1.3-4.43,2-6.64,1.43-4.42,2.84-8.87,4.11-13.45.28-1.05.54-2.1.78-3.16a10.55,10.55,0,0,0,1.31,2.16,10.13,10.13,0,0,0,1.1,1.26c.39.39.86.71,1.28,1.07l.16-.22a33.08,33.08,0,0,0-.81-3.39c-.28-.92-.53-1.75-.82-2.57s-.65-1.63-1.07-2.53l-.24-.5a54.65,54.65,0,0,0,.64-6.44c0-2.53-.15-4.82-.34-7.23a67.22,67.22,0,0,0-.92-7.15,55.31,55.31,0,0,0-1.85-7.07c-.27-.79-.58-1.57-.9-2.34l.09-.24a9.77,9.77,0,0,1,1.91-2.92,10.1,10.1,0,0,1,2.73-2.17,17.37,17.37,0,0,1,3.28-1.34l-.07-.26a6.4,6.4,0,0,0-2.12-.52,7.61,7.61,0,0,0-2.12.22,7.69,7.69,0,0,0-3.7,2.25,7.56,7.56,0,0,0-1.37,2.12q-.42-.78-.9-1.53c-.35-.52-.69-1.05-1.06-1.56s-.78-1-1.19-1.48-.85-.93-1.31-1.38-1-.87-1.52-1.26a21.8,21.8,0,0,0-6.79-3.12,41.61,41.61,0,0,0-14.18-1.22v.27a46.58,46.58,0,0,1,13.71,2.3,20.67,20.67,0,0,1,6.12,3.2,19.28,19.28,0,0,1,4.38,5.33A39.42,39.42,0,0,1,201,150.75c.39,2.29.64,4.61.81,6.93s.29,4.65.26,7A63.54,63.54,0,0,1,200,178.4c-1.1,4.53-2.46,9-3.68,13.51a75.48,75.48,0,0,0-2.84,13.72,42.2,42.2,0,0,0,0,7,29.53,29.53,0,0,0,1.13,6.24,34,34,0,0,1-5.3-1.15,29.24,29.24,0,0,1-5.26-2.28c-6.68-3.84-12-9.71-19-13.38a14,14,0,0,0-5.58-1.71,15.3,15.3,0,0,0-5.73,1.15,22.71,22.71,0,0,0-5.12,2.79,24.71,24.71,0,0,0-4.33,3.91l.21.17A28.24,28.24,0,0,1,149.14,205.06Z" style="fill:#263238"></path><path d="M160.5,154.4a21.24,21.24,0,0,0,3.34,5.06,10.19,10.19,0,0,0,4.21,2.81c-.1.56-.18,1.12-.27,1.69s-.11,1.21-.17,1.81a30.87,30.87,0,0,0,.48,7.25c.25,1.19.54,2.36.9,3.52.16.52.34,1,.52,1.55a15.82,15.82,0,0,0-3.57,3.5,20.59,20.59,0,0,0-3,6.22,26.11,26.11,0,0,0-1,6.57,24,24,0,0,0,.7,6.45l.27,0a35.19,35.19,0,0,1,.4-6.23,31.33,31.33,0,0,1,1.55-6,22,22,0,0,1,3-5.4,16.52,16.52,0,0,1,4.73-3.92l.22-.13-.11-.22a34,34,0,0,1-2.13-6.41,32.92,32.92,0,0,1-.82-6.71,25.67,25.67,0,0,1,.73-6.71l.44-1.64.6-1.58c.11-.26.2-.53.31-.79l.38-.76.78-1.51-.24-.13a19,19,0,0,0-2.1,2.83c-.31.51-.58,1-.88,1.57l-.7,1.65a13.32,13.32,0,0,0-.57,1.72c-.09.37-.2.74-.3,1.12a16.91,16.91,0,0,1-2.81-3.51c-.92-1.5-1.68-3.12-2.48-4.77s-1.56-3.38-2.45-5.13a39.5,39.5,0,0,0-3-5.34l-.26,0a38.53,38.53,0,0,0,1.23,5.91A39,39,0,0,0,160.5,154.4Z" style="fill:#263238"></path><path d="M147.06,183.54a3.49,3.49,0,0,0,.19.39.22.22,0,0,0-.05.08,5.33,5.33,0,0,0-.31.58,7.42,7.42,0,0,0-.32.71l1.32-.2c.24.38.49.74.74,1.11l.28.42.17-.49c.16-.43.35-.87.56-1.3l1.14-.17q-.28-.48-.57-.93c.31-.57.63-1.12,1-1.67.83-1.3,1.7-2.58,2.63-3.81l-.22-.17a11.32,11.32,0,0,0-2.2,1.28,10.82,10.82,0,0,0-1,.78c-.31.28-.63.55-.91.85s-.33.36-.49.54c-.23-.47-.45-.94-.66-1.42a20.82,20.82,0,0,1-.87-2.53,19.56,19.56,0,0,1-.54-3l-.24-.13a9.94,9.94,0,0,0-.61,6.11A14.68,14.68,0,0,0,147.06,183.54Z" style="fill:#263238"></path><path d="M159.74,235l2.86.06s.06.08.1.12c.23.28.48.55.75.82s.27.26.43.39a4.68,4.68,0,0,0,.56.45l.51-1.74h.75a88.13,88.13,0,0,0,8.07,8.1,49.78,49.78,0,0,0,4.59,3.6,23.32,23.32,0,0,0,5.15,2.79,16.35,16.35,0,0,0,5.8.87,36.61,36.61,0,0,0,5.82-.63,58.8,58.8,0,0,0,9.64-2.73,22.73,22.73,0,0,0-2.21,1.82,23.77,23.77,0,0,0-3,3.4,17.67,17.67,0,0,0-2.09,4,13.14,13.14,0,0,0-.72,4.48H197c1-1.47,1.69-2.65,2.48-3.76l2.26-3.22c.77-1.07,1.53-2.18,2.31-3.38a33.47,33.47,0,0,0,2.18-3.93,27,27,0,0,0,7.91,2.57,16.27,16.27,0,0,0,4.24.16,11.73,11.73,0,0,0,3.19-.73,51.09,51.09,0,0,1,4.14,5,48.53,48.53,0,0,1,3.53,5.61c.43.74.81,1.5,1.18,2.27a28.46,28.46,0,0,0-1.86,2.25c-.64.84-1.25,1.69-1.83,2.57s-1.07,1.82-1.54,2.77a16.22,16.22,0,0,0-1.14,2.95l.25.08a13.82,13.82,0,0,0,2.82-2,12.43,12.43,0,0,0,1.89-2.3A11.33,11.33,0,0,0,230.3,265a10.24,10.24,0,0,0,.48-2.82c.42,1,.91,2,1.26,3,.19.52.39,1,.57,1.55l.48,1.59c.36,1.05.55,2.14.84,3.21l.26-.05a16.9,16.9,0,0,0-.14-7.05l-.18-.87c-.06-.28-.17-.55-.25-.83l-.55-1.68a26,26,0,0,0-1.47-3.17,23.72,23.72,0,0,0-4.16-5.59A17.49,17.49,0,0,0,222,248.4a4,4,0,0,0,.52-.24,11.5,11.5,0,0,0,3.33-2.63,20.85,20.85,0,0,0,2.48-3.42,34.59,34.59,0,0,0,3.31-7.74l-.26-.07a44.13,44.13,0,0,1-4.14,7.16c-1.59,2.15-3.47,4.12-5.6,5a9.1,9.1,0,0,1-3.41.69,17.18,17.18,0,0,1-3.68-.32,23.15,23.15,0,0,1-3.67-1.05c-.61-.23-1.2-.48-1.79-.73s-1.21-.55-1.68-.8l-1-.52-1.06.41c-1.67.65-3.51,1.25-5.29,1.76s-3.59,1-5.4,1.38c-3.58.65-7.29,1.16-10.35.17a21.48,21.48,0,0,1-4.81-2.25c-1.57-1-3.17-2-4.69-3.15-2.93-2.15-5.77-4.52-8.62-6.92h.31l-.69-.47a6.26,6.26,0,0,1-.57-.45l.49-1.66c-.71,0-1.41-.07-2.12-.1-.08-.11-.17-.22-.24-.33a14.44,14.44,0,0,1-1.64-3.17,19.06,19.06,0,0,1-.87-3.48c-.11-.6-.13-1.2-.2-1.8l0-1.8h-.27c-.16.6-.36,1.22-.47,1.85a13.75,13.75,0,0,0-.21,1.92,13.77,13.77,0,0,0,1.27,6.71c-.37,0-.74,0-1.12,0h-2.95l-3,.13c-1,0-2,.14-3,.22s-2,.2-3,.34A43.46,43.46,0,0,0,142,234.2v.27c3.94.16,7.89.26,11.83.36Z" style="fill:#263238"></path><path d="M247.4,254.18a12,12,0,0,0-4-6.79,9,9,0,0,0-3.78-2l-.2.18c.76,1,1.5,2,2.21,3s1.38,2.09,2,3.17a37.44,37.44,0,0,1,1.8,3.29c.54,1.12,1,2.28,1.46,3.45l.26-.08A8.55,8.55,0,0,0,247.4,254.18Z" style="fill:#263238"></path><path d="M131.26,260.46a23.59,23.59,0,0,0,5.55,2.28,21,21,0,0,0,6,.79,14.51,14.51,0,0,0,5.85-1.42l.54-.3a38.23,38.23,0,0,0,5.05,5.73,34.84,34.84,0,0,0,6.48,4.84,23.28,23.28,0,0,0,7.63,2.71,19,19,0,0,0,4.06.18,20,20,0,0,0,4-.75l-.08-.26a33.55,33.55,0,0,1-7.62-1.29,30.89,30.89,0,0,1-3.4-1.29A28.35,28.35,0,0,1,162,270a35,35,0,0,1-3.18-1.93c-1.08-.65-2.08-1.43-3.16-2.13-2-1.41-4-2.88-6.12-4.37a14,14,0,0,0,3.73-3.25l-.21-.17a34.29,34.29,0,0,1-5.38,2,23,23,0,0,1-5,.65c-1.7,0-3.46-.05-5.32-.17s-3.79-.34-6-.43Z" style="fill:#263238"></path><path d="M220.12,323.46c-.39-2.21-.91-4.06-1.32-5.94L217.58,312c-.41-1.85-.82-3.72-1.33-5.63a47.61,47.61,0,0,0-1.71-5.59,28.76,28.76,0,0,0,5.69,2.34,18.78,18.78,0,0,0,4.47.71,11.08,11.08,0,0,0,4.48-.66l-.12-.25a8.42,8.42,0,0,1-2.18.18,12.84,12.84,0,0,1-2.15-.21,18.76,18.76,0,0,1-4.11-1.17,25,25,0,0,1-3.82-1.86c-.6-.38-1.24-.73-1.81-1.12s-1.14-.75-1.64-1.22a23.24,23.24,0,0,1-5.23-6.23,25,25,0,0,1-1.88-3.68c-.28-.63-.51-1.28-.73-1.93s-.42-1.35-.56-1.87l-.47-1.78-1.73-.12c-1.22-.09-2.63-.26-3.95-.47s-2.69-.47-4-.7c-2.69-.5-5.36-1.17-8-1.86a34.41,34.41,0,0,1-3.79-1.2,14.42,14.42,0,0,1-3.36-1.84,9.42,9.42,0,0,1-3.92-6.58l-.27,0a9.59,9.59,0,0,0,3.24,7.64,19.61,19.61,0,0,0,7.43,4c2.67.91,5.39,1.68,8.13,2.32a66.19,66.19,0,0,0,8.18,1.38,28.42,28.42,0,0,0,3.56,8.09,23.71,23.71,0,0,0,6.14,6.6,21.08,21.08,0,0,0,2.06,1.31,36,36,0,0,0,0,6,43.79,43.79,0,0,0,.83,6,34.66,34.66,0,0,0,1.88,5.82,24.85,24.85,0,0,0,3.09,5.27Z" style="fill:#263238"></path><path d="M175.1,194.56a24.14,24.14,0,0,1,2.69-6.08,31.08,31.08,0,0,1,4.09-5.28l-.19-.2a14.87,14.87,0,0,0-5.73,4.35A18.8,18.8,0,0,0,171.79,201a13.88,13.88,0,0,0,2.32,6.82l.26-.07a21.54,21.54,0,0,1-.41-3.31c0-.55-.05-1.11-.07-1.67s0-1.11,0-1.67A26,26,0,0,1,175.1,194.56Z" style="fill:#263238"></path><path d="M127.82,257l.26-.08c.3-2.6.34-4.91.6-7.24s.48-4.56.83-6.83l1-6.89c.37-2.34.72-4.7.93-7.28l-.24-.13a39.79,39.79,0,0,0-2.75,6.78,48.55,48.55,0,0,0-1.63,7.14,37.43,37.43,0,0,0-.29,7.33A29.82,29.82,0,0,0,127.82,257Z" style="fill:#263238"></path><path d="M127.81,287.34c.23-2.24.17-4.18.27-6.12l.24-5.72c.08-1.9.16-3.81.17-5.79a50.59,50.59,0,0,0-.16-6.2l-.25-.1a33.85,33.85,0,0,0-1.7,5.89,41.54,41.54,0,0,0-.76,6.09,33.09,33.09,0,0,0,.34,6.13,26.32,26.32,0,0,0,1.6,5.92Z" style="fill:#263238"></path><path d="M142.85,290.56c.66.14,1.32.23,2,.35l0-.27a13.66,13.66,0,0,0-1.66-1.49l-.79-.62a4.73,4.73,0,0,0-.39-.28l-.38-.29c-1-.7-1.94-1.39-2.91-2s-1.91-1.22-3-1.84-2.15-1.25-3.56-2l-.25.1a11.74,11.74,0,0,0,2.22,3.37,16.47,16.47,0,0,0,3.07,2.64,18.24,18.24,0,0,0,3.65,1.74C141.54,290.24,142.21,290.37,142.85,290.56Z" style="fill:#263238"></path><path d="M139.53,289.68a23.93,23.93,0,0,0-1.49,5,31.31,31.31,0,0,0-.36,10.46c.08.87.25,1.73.41,2.59s.44,1.7.65,2.54l.26-.07a35.67,35.67,0,0,0,.82-5.31c.13-1.66.25-3.28.3-4.9s.08-3.24,0-4.92a47.13,47.13,0,0,0-.39-5.32Z" style="fill:#263238"></path><path d="M149.16,323.85a19.39,19.39,0,0,1-3.79-1.62,6,6,0,0,1-1.32-1,5.28,5.28,0,0,1-.92-1.38,9.29,9.29,0,0,1-.65-1.62c-.07-.28-.15-.57-.2-.87s-.09-.63-.1-.78v-3.05l-3.38,1.3-.64.25c-.24.09-.49.18-.73.25a10,10,0,0,1-1.45.33,4.88,4.88,0,0,1-2.35-.25,3.16,3.16,0,0,1-1.56-1.54,13.4,13.4,0,0,1-.65-1.36c-.18-.53-.39-1-.54-1.61l-.23-.85c-.07-.29-.13-.58-.22-.87-.16-.57-.29-1.17-.42-1.77l-.73-3.64c-.45-2.46-.9-5-1.45-7.49h-.27c-.08,2.53,0,5.07.08,7.6a48.34,48.34,0,0,0,.93,7.56,14.58,14.58,0,0,0,1.22,3.64,5.78,5.78,0,0,0,2.72,2.76,6.75,6.75,0,0,0,3.86.44,12.09,12.09,0,0,0,3.38-1.11,10.48,10.48,0,0,0,1.5,3.9,7.18,7.18,0,0,0,3.43,2.87A18.21,18.21,0,0,0,149,325a27.6,27.6,0,0,0,4.45.23V325C152,324.66,150.53,324.27,149.16,323.85Z" style="fill:#263238"></path><path d="M169.06,340.29c-.76-.94-1.53-1.77-2.29-2.6-1.54-1.6-3.08-3.09-4.5-4.67a35.53,35.53,0,0,1-3.89-4.63c-.23-.41-.5-.8-.73-1.22l-.61-1.32c-.34-.92-.69-1.85-1-2.83a53.1,53.1,0,0,1-1.47-12.71l-.27-.06a37.09,37.09,0,0,0-.79,6.56,31.1,31.1,0,0,0,.44,6.6,18.92,18.92,0,0,0,2.19,6.26,32.47,32.47,0,0,0,4.13,5.19c1.51,1.61,3.11,3.12,4.69,4.65.78.76,1.57,1.53,2.29,2.34a13,13,0,0,1,1.89,2.62,6.13,6.13,0,0,1,.69,3.08,5.26,5.26,0,0,1-1.15,2.91,11.34,11.34,0,0,1-5.44,3.38l.07.26a16.38,16.38,0,0,0,1.71-.25,13.29,13.29,0,0,0,1.66-.53,9.38,9.38,0,0,0,3.11-2,6.74,6.74,0,0,0,1.85-3.68,7.7,7.7,0,0,0-.61-4.15A13.22,13.22,0,0,0,169.06,340.29Z" style="fill:#263238"></path><path d="M185.59,322.62c.25.21.52.41.76.64l.71.69a27,27,0,0,1,4.67,6.39,26.29,26.29,0,0,1,2.73,7.42,22.13,22.13,0,0,1,0,7.91,45.84,45.84,0,0,1-5.27,15l.23.14a35.27,35.27,0,0,0,5.78-10.22,15,15,0,0,0,.71,1.38,17.62,17.62,0,0,0,2.37,3.21,18.25,18.25,0,0,0,3.06,2.55,16.27,16.27,0,0,0,1.7,1c.59.31,1.22.55,1.82.82l.1-.25a26.23,26.23,0,0,0-2.4-3.37c-.8-.92-1.53-1.81-2.32-2.62s-1.58-1.64-2.47-2.47c-.64-.58-1.29-1.16-2.06-1.79.32-1,.61-2,.84-3.07.16-.69.27-1.39.4-2.09s.15-1.42.22-2.14,0-1.51,0-2.25c-.05-.41-.08-.82-.12-1.23a7.9,7.9,0,0,0,3.6,1,5.39,5.39,0,0,0,3.75-1.31l0-.27a12.25,12.25,0,0,1-3.12-.5,14.66,14.66,0,0,1-2.89-1.29,21.12,21.12,0,0,1-2-1.33,30.17,30.17,0,0,0-2.23-5.53,28.92,28.92,0,0,0-5.26-6.92l-.83-.74c-.28-.24-.59-.46-.88-.69a15.52,15.52,0,0,0-1.89-1.26,6.69,6.69,0,0,0-1-.54c-.35-.17-.7-.34-1.07-.49-.56-.15-1.1-.34-1.67-.45a46.43,46.43,0,0,1-2.66-4.38,42.09,42.09,0,0,1-2.77-6.53,40.74,40.74,0,0,1-1.76-6.87,50.82,50.82,0,0,1-.69-7.08h-.27a18.76,18.76,0,0,0-1.16,7.43,24.82,24.82,0,0,0,1.32,7.39,24,24,0,0,0,3.44,6.67,20.78,20.78,0,0,0,2.81,3.19c-.46,0-.9,0-1.34,0a15.62,15.62,0,0,0-2.19.34,21,21,0,0,0-4.07,1.39,24.85,24.85,0,0,0-6.82,4.66l.16.22a30.5,30.5,0,0,1,7.12-3.53,19.92,19.92,0,0,1,3.86-.93,12.06,12.06,0,0,1,3.93,0,9.53,9.53,0,0,1,1.87.55c.3.14.59.3.88.45a5.88,5.88,0,0,1,.85.49A14.26,14.26,0,0,1,185.59,322.62Z" style="fill:#263238"></path><path d="M241.25,357.25a7.41,7.41,0,0,1-2.85,1.61,9.37,9.37,0,0,1-1.51.29,7.74,7.74,0,0,1-1.57-.13,10.88,10.88,0,0,1-1.69-.36c-.58-.22-1.15-.4-1.74-.68a34.88,34.88,0,0,1-3.58-1.77c-2.39-1.36-4.8-2.89-7.41-4.41l-.21.18a38.55,38.55,0,0,0,6.35,6,25.41,25.41,0,0,0,3.71,2.33,21.09,21.09,0,0,0,2,.88,12.38,12.38,0,0,0,2.16.53,8.46,8.46,0,0,0,8-3,16.28,16.28,0,0,0,3.37-8l-.26,0A24.73,24.73,0,0,1,241.25,357.25Z" style="fill:#263238"></path><path d="M244.54,374.87a19,19,0,0,1-3,3.86c-.31.24-.58.52-.87.78l-.93.68a6.49,6.49,0,0,1-1.88.89,13.13,13.13,0,0,1-4.62.56,35.76,35.76,0,0,1-5.16-.51c-3.52-.59-7.1-1.47-10.82-2.31l-.13.24a52.27,52.27,0,0,0,10.41,4.13,29.4,29.4,0,0,0,5.53,1,15.12,15.12,0,0,0,5.63-.54,8.85,8.85,0,0,0,2.54-1.3l1.13-.87,1-1a17.22,17.22,0,0,0,1.46-1.83,23.29,23.29,0,0,1-1.68,6.54,18.09,18.09,0,0,1-1.61,2.82,15.36,15.36,0,0,1-1,1.26c-.18.2-.33.43-.51.62l-.56.54A18.78,18.78,0,0,1,234,394a59,59,0,0,1-7,2.48l0,.27a21.08,21.08,0,0,0,7.62-.68,15.47,15.47,0,0,0,6.69-3.73l.67-.69c.21-.25.4-.51.61-.76a14.54,14.54,0,0,0,1.09-1.6,15.25,15.25,0,0,0,1.49-3.56,14.1,14.1,0,0,0-.07-7.57,20.81,20.81,0,0,0,1.34-2.39A29.27,29.27,0,0,0,249,364.9h-.27A47.45,47.45,0,0,1,244.54,374.87Z" style="fill:#263238"></path><path d="M207.25,395.89c-.64-.54-1.22-1.18-1.85-1.74-1.18-1.22-2.28-2.52-3.35-3.83-.53-.66-1-1.35-1.51-2s-1-1.4-1.4-2l-.74-1.2-1.53.1-1.74.1c-.58,0-1.14,0-1.71,0s-1.12,0-1.68-.05-1.09-.1-1.6-.22a10.83,10.83,0,0,1-2.87-.88,4.73,4.73,0,0,1-.66-.38l0,0c.24-.22.47-.44.69-.68a6.67,6.67,0,0,0,1.63-3.45,7.71,7.71,0,0,0-.47-3.46c-.22-.5-.47-1-.72-1.45l-.91-1.29-.25.12.58,1.38c.14.47.29.95.4,1.43a7.23,7.23,0,0,1,0,2.93,5.14,5.14,0,0,1-1.49,2.46,6.54,6.54,0,0,1-2.53,1.42l-.22.07.08.19a4.54,4.54,0,0,0,.91,1.38l-.23.42.44-.17a7.82,7.82,0,0,0,1.51,1.17,11.18,11.18,0,0,0,3.57,1.34c.61.17,1.25.2,1.87.31s1.27.1,1.9.11,1.26,0,1.89,0l1.74-.15a39.23,39.23,0,0,0,7.12,7.89,27.69,27.69,0,0,0,4.5,3,18.65,18.65,0,0,0,5.12,1.73l0-.27a26.58,26.58,0,0,1-4.56-2.62C208.57,397,207.87,396.49,207.25,395.89Z" style="fill:#263238"></path><path d="M199.74,379.37a10.22,10.22,0,0,1,2.39-1.58,20.42,20.42,0,0,1,2.66-1.17c.91-.34,1.85-.62,2.77-.93l-.06-.26a6.6,6.6,0,0,0-3.43-.85,7.39,7.39,0,0,0-3.19.81,6.63,6.63,0,0,0-2.66,2.44,4.63,4.63,0,0,0-.64,2,2.37,2.37,0,0,0,.72,2l.26-.08a2.16,2.16,0,0,1,.32-1.29A5,5,0,0,1,199.74,379.37Z" style="fill:#263238"></path><path d="M164.05,366.67a27.26,27.26,0,0,0-2.23-2.73,19.49,19.49,0,0,0-3-2.72l-.26.07a19.3,19.3,0,0,0,1.38,3.62,24.45,24.45,0,0,0,2,3.34,18.84,18.84,0,0,0,2.61,2.89,14.44,14.44,0,0,0,3.2,2.2l.12-.24a35.38,35.38,0,0,0-1.86-3.55C165.34,368.52,164.71,367.61,164.05,366.67Z" style="fill:#263238"></path><path d="M247.14,308.77l-.22-.15c-.55.73-1.1,1.45-1.64,2.19s-1.1,1.44-1.67,2.15c-1.07,1.47-2.26,2.84-3.41,4.25l.2.18a6.48,6.48,0,0,0,3.19-.89,7.53,7.53,0,0,0,3.45-4.43A6.56,6.56,0,0,0,247.14,308.77Z" style="fill:#263238"></path><path d="M251.14,110.7S253.28,96.62,261.23,92s27.55-4,41.62,2.45,16.53,13.77,16.53,13.77,15.3,6.43,19.58,19.89c0,0,6.13,10.1,8.88,19.89s2.75,13.16,2.75,13.16,3.37,12.24,6.74,19.59,8.56,27.23,14.07,39.47,8.57,29.08,7.35,34.89L377.52,261s3.37,11.63.62,27.85c0,0-.31,23.87-7.35,33.36,0,0-4.9,29.38-23.87,41.31,0,0-10.4,15.61-25.4,20.2,0,0-11.63,8.88-19.58,10.1,0,0-13.16,10.71-26.93,10.71s-18.67-1.84-22-8.57-2.75-18.36-2.45-23.87,3.37-21.42,3.37-21.42-1.84-27.54-1.84-32.44a54.93,54.93,0,0,1,.92-9.49s-2.75-11-1.22-16.52a86.12,86.12,0,0,0,2.14-9.79s-4.28-2.76-3.06-11S253,258.51,253,258.51s-3.67-9.8-3.36-18.06,2.44-12.24,2.44-12.24-1.22-6.12-.61-10.1a42.88,42.88,0,0,0,.61-5.51,73.15,73.15,0,0,1-2.14-15.6c0-7.35.31-9.49.61-10.41s1.84-9.79,1.84-9.79l-.61-25.4s-1.23-14.69-1.53-26.63S251.14,110.7,251.14,110.7Z" style="fill:#FFFFFF;stroke:#263238;stroke-miterlimit:10"></path><path d="M300,115.19c1.92,2,3.88,3.91,5.64,6a19.63,19.63,0,0,1,2.32,3.35,7.49,7.49,0,0,1,1,3.86l.27,0a6.82,6.82,0,0,0,.05-4.55,16.17,16.17,0,0,0-2-4,32.2,32.2,0,0,0-2.56-3.43c-.91-1.07-1.87-2.07-2.78-3.08l-2.86-2.86c-1-.9-1.84-1.88-2.8-2.8-1.83-1.93-3.7-3.84-5.6-6l-.25.09a30.87,30.87,0,0,0,4.13,7.18A64.55,64.55,0,0,0,300,115.19Z" style="fill:#263238"></path><path d="M303,137.39a31.33,31.33,0,0,0-2.73,6.19,9.59,9.59,0,0,0-.7-3.08,10.3,10.3,0,0,0-1.93-3.12,11,11,0,0,0-2.92-2.2,12.41,12.41,0,0,0-1.67-.73c-.58-.19-1.17-.32-1.75-.47l-.07.26a16.67,16.67,0,0,0,1.31,1.57l.6.66a4.11,4.11,0,0,0,.29.3c.09.11.17.22.26.31.75.74,1.32,1.47,2,2.12s1.22,1.35,1.92,2.13l2.45,2.74h.09a51.88,51.88,0,0,0-1.57,6.6c-.41,2.31-.67,4.64-.86,7s-.31,4.66-.29,7c0,1.32.14,2.64.29,4l-.12-.11-.26.06a9.54,9.54,0,0,1,.1,1.61,14.44,14.44,0,0,1-.06,1.61,12,12,0,0,1-.75,3.13,10.68,10.68,0,0,1-1.48,2.84,15.25,15.25,0,0,1-2.18,2.37l.16.22a5.76,5.76,0,0,0,3.76-1.31,7.19,7.19,0,0,0,2.15-2.9c.18.79.37,1.59.57,2.38,1.13,4.54,2.51,9,3.75,13.5a75.28,75.28,0,0,1,2.89,13.64,40.57,40.57,0,0,1,.08,7,33.84,33.84,0,0,1-.57,4.11l-.85.14a56.29,56.29,0,0,1-11.13.39,136.82,136.82,0,0,1-22.79-3l-.09.26a91.82,91.82,0,0,0,20,4.59h0a13.05,13.05,0,0,1,1.56,2.07,10.64,10.64,0,0,1,1.1,2.34,10.16,10.16,0,0,1,.61,2.5,15,15,0,0,1,.07,2.6l.26,0a4.74,4.74,0,0,0,1.82-2.85,5.77,5.77,0,0,0-.22-3.19,5.85,5.85,0,0,0-1.81-2.6,5.56,5.56,0,0,0-1-.63l.31,0a53.63,53.63,0,0,0,11.47,0v0l.26.1.06-.16a34.6,34.6,0,0,0,5.58-1.17c.72-.22,1.42-.48,2.13-.76v.11c1,1,1.64,1.51,2.13,2.11s.9,1,1.34,1.46,1,.93,1.64,1.49a24.29,24.29,0,0,0,2.55,1.85l.27,0a9.71,9.71,0,0,0-.89-2.78,9.61,9.61,0,0,0-1.65-2.42,6.83,6.83,0,0,0-2.5-1.57,6.14,6.14,0,0,0-2.47-.37,29.42,29.42,0,0,0,2.83-1.36c6.76-4,12.06-9.84,18.87-13.49a13.68,13.68,0,0,1,5.42-1.7,14.83,14.83,0,0,1,5.59,1.09,22.36,22.36,0,0,1,5.07,2.73,24,24,0,0,1,4.29,3.83l.21-.17a21.58,21.58,0,0,0-4-4.41,22.39,22.39,0,0,0-5.09-3.31,20.31,20.31,0,0,0-2.92-1.07,13.76,13.76,0,0,0-1.56-.35,14.1,14.1,0,0,0-1.71-.15,11.66,11.66,0,0,0-3.1.43,37.25,37.25,0,0,0-.36-4.83,31,31,0,0,0-1.51-6.13,21.72,21.72,0,0,0-3-5.55,16.8,16.8,0,0,0-4.63-4,32.91,32.91,0,0,0,2-6.31,34,34,0,0,0,.76-6.81,25.49,25.49,0,0,0-.82-6.8l-.45-1.66-.63-1.6c-.11-.26-.2-.53-.32-.79l-.4-.76-.79-1.52-.24.13.46,1.67.25.8c.07.27.11.56.17.83.1.55.23,1.08.35,1.62l.19,1.63a10.84,10.84,0,0,1,.14,1.62c0,.54.09,1.06.06,1.61s0,1.07,0,1.6-.08,1.06-.12,1.59a38.22,38.22,0,0,1-1.1,6.28c-.26,1-.55,2.05-.9,3.05s-.78,2-1.12,2.86l-.88,2.15,1.92,1.05a15.85,15.85,0,0,1,4.13,3.29,23.42,23.42,0,0,1,3,4.72,39.77,39.77,0,0,1,2.08,5.61c.46,1.55.84,3.16,1.17,4.79a25.46,25.46,0,0,0-2.62,1c-1,.42-1.85.94-2.75,1.43s-1.73,1.07-2.54,1.64-1.73,1.21-2.57,1.82a25.19,25.19,0,0,0,.2-4.34,27.12,27.12,0,0,0-1.1-6.69,24.83,24.83,0,0,0-2.83-6.17,24.27,24.27,0,0,0-2-2.76c-.7-.88-1.54-1.65-2.31-2.48l-.19.2c.39,1.19,1,2.14,1.37,3.19s.9,2,1.28,3a55.38,55.38,0,0,1,2.06,5.82c.6,1.95,1.08,3.94,1.54,6,.33,1.6.63,3.24.95,5l-1.21.91a81.71,81.71,0,0,1-9.17,6.49,26.74,26.74,0,0,1-4.83,2.13,28.08,28.08,0,0,1-3.8.92,32.39,32.39,0,0,0,.88-3.93,40.75,40.75,0,0,0,.42-7.16,49.42,49.42,0,0,0-.77-7.17c-.41-2.35-1-4.63-1.49-6.92-1-4.58-2.36-9.06-3.34-13.54a63.76,63.76,0,0,1-1.94-13.31c0-2.14.07-4.51.22-6.76s.4-4.52.73-6.75a40,40,0,0,1,3.79-12.62,18.61,18.61,0,0,1,3.8-5.06,19.36,19.36,0,0,1,5.58-3.31,53.21,53.21,0,0,1,13.35-3.33v-.27a47,47,0,0,0-13.82,2.25,21.05,21.05,0,0,0-6.24,3.23A19.49,19.49,0,0,0,303,137.39Z" style="fill:#263238"></path><path d="M274,133.34l.25.11a14.33,14.33,0,0,0,1.93-1.48c.58-.5,1.14-1,1.62-1.46,1.05-.92,1.92-1.88,2.84-2.7s1.78-1.67,2.76-2.47a26.14,26.14,0,0,1,3.52-2.48l0-.27a8.85,8.85,0,0,0-4.42.77,13.25,13.25,0,0,0-3.74,2.48,18.86,18.86,0,0,0-2.8,3.51c-.38.64-.74,1.29-1.1,2Z" style="fill:#263238"></path><path d="M271.15,120.6a39.64,39.64,0,0,0,1.72,4.43,23.9,23.9,0,0,0,2.58,4.46l.27,0a37.06,37.06,0,0,0-.74-4.91c-.34-1.61-.76-3.22-1.26-4.8a42.53,42.53,0,0,0-1.86-4.6,26.35,26.35,0,0,0-2.57-4.26l-.22.16a35.68,35.68,0,0,0,.84,5C270.25,117.63,270.68,119.11,271.15,120.6Z" style="fill:#263238"></path><path d="M251.88,151.39c1-1.31,1.56-2.27,2.29-3.12l2-2.41c.71-.79,1.42-1.63,2.18-2.57a28.53,28.53,0,0,0,2.31-3.36l-.09-.26a16.46,16.46,0,0,0-3.47,1.84,17,17,0,0,0-3,2.59,12.07,12.07,0,0,0-2,3.41,9.57,9.57,0,0,0-.54,3.89Z" style="fill:#263238"></path><path d="M268.66,166.64a22.79,22.79,0,0,0,2.19,3.84,41.45,41.45,0,0,0,2.7,3.48,26.75,26.75,0,0,0,6.6,5.81l.13-.24a76.46,76.46,0,0,1-5.1-6.95c-.74-1.2-1.55-2.33-2.23-3.55-.38-.61-.68-1.15-1-1.71s-.56-1.17-.82-1.77-.62-1.45-.9-2.19c.53-.78,1-1.52,1.5-2.22l2.33-3.58c.76-1.19,1.5-2.41,2.25-3.7a38,38,0,0,0,2.2-4.34l-.15-.23a24.15,24.15,0,0,0-6.58,6.82,20.73,20.73,0,0,0-2.08,4.29c-.09.25-.17.5-.25.76-.38-1.1-.68-2.24-1.08-3.37-.81-2.72-1.61-5.5-2.61-8.38h-.27a51.37,51.37,0,0,0,.77,8.75A38.13,38.13,0,0,0,268.66,166.64Z" style="fill:#263238"></path><path d="M254.63,190.31a24.84,24.84,0,0,0,1.74-3.63,16.27,16.27,0,0,0,1.07-4.37l-.21-.18a39.62,39.62,0,0,0-2.63,3.3c-.82,1.14-1.6,2.33-2.31,3.54a24.49,24.49,0,0,0-1.79,3.85,9.77,9.77,0,0,0-.72,4.18h.27c.89-1.39,1.7-2.35,2.47-3.42S254,191.45,254.63,190.31Z" style="fill:#263238"></path><path d="M251.93,212.55l.25.1a27.85,27.85,0,0,1,5.45-4.14c1.87-1.13,3.85-2.09,5.86-3.08s4.07-1.93,6.15-3a59,59,0,0,0,6.32-3.51l0-.26A50.42,50.42,0,0,0,269,200.4a52,52,0,0,0-6.67,2.6,30.73,30.73,0,0,0-6.05,3.86A14.5,14.5,0,0,0,251.93,212.55Z" style="fill:#263238"></path><path d="M337.4,160.61a15.23,15.23,0,0,0,4.05-5.28,19.49,19.49,0,0,0,1.75-6.14,15.38,15.38,0,0,0-.4-6.38l-.26,0a58,58,0,0,1-1.4,5.82,38,38,0,0,1-2.13,5.58,20.09,20.09,0,0,1-3.19,5,10,10,0,0,1-4.91,3.11l.06.26A7.82,7.82,0,0,0,337.4,160.61Z" style="fill:#263238"></path><path d="M347.51,182.91c.24.72.51,1.4.75,2.08l.36,1,.17.47c0,.13.11.34.11.37l-1.42,8.33,5.62-7.69c.35-.47.67-1,1-1.44a15.44,15.44,0,0,0,.78-1.58,11.59,11.59,0,0,0,.85-3.49,9.49,9.49,0,0,0-.46-3.56,6.2,6.2,0,0,0-1.95-2.92l-.24.13a8.7,8.7,0,0,1,.62,2.91,11.47,11.47,0,0,1-.23,3,13.55,13.55,0,0,1-1,2.83,20.77,20.77,0,0,1-1.27,2.19c-.25-.57-.52-1.12-.81-1.67s-.78-1.35-1.21-2a36.65,36.65,0,0,0-2.77-3.75l-.22.17a22.75,22.75,0,0,0,.59,2.43C347,181.46,347.27,182.18,347.51,182.91Z" style="fill:#263238"></path><path d="M340.25,234.46l-5.18.13a10.88,10.88,0,0,0,2-2.22,14.52,14.52,0,0,0,1.66-3.29,17,17,0,0,0,.84-3.57c.09-.61.1-1.22.15-1.83v-1.83h-.27c-.18.6-.37,1.2-.52,1.78l-.29.86a8.27,8.27,0,0,1-.28.84,22,22,0,0,1-1.38,3.11,13.78,13.78,0,0,1-1.8,2.62,9.73,9.73,0,0,1-1,1.09,5.58,5.58,0,0,1-.55.44l-.26.19c-.08.05-.21.13-.18.1l.7,2.34A87.65,87.65,0,0,1,326,243a50.37,50.37,0,0,1-4.58,3.54,22.34,22.34,0,0,1-5.08,2.7,15.56,15.56,0,0,1-5.64.81,35.79,35.79,0,0,1-5.74-.66c-2.11-.42-4.2-1-6.27-1.6a.18.18,0,0,0-.07-.05,9.64,9.64,0,0,0-4.39-1.48l-.37-.14-.1,0-.11.05a26.88,26.88,0,0,1-7.86,2.63,15.89,15.89,0,0,1-4.13.18,10.42,10.42,0,0,1-4-1.07,11,11,0,0,1-3.23-2.53A19.76,19.76,0,0,1,272,242a34.91,34.91,0,0,1-3.33-7.65l-.26.07a28.21,28.21,0,0,0,2.51,8.22,18.05,18.05,0,0,0,2.35,3.81,12.23,12.23,0,0,0,3.56,3.15,1.29,1.29,0,0,1,.16.09,40.06,40.06,0,0,0-3.06,3.68,49.5,49.5,0,0,0-3.64,5.62c-.55,1-1,2-1.5,3s-.9,2.05-1.25,3.11a37.11,37.11,0,0,0-1.73,6.46l.26.05c1.4-2,2.39-3.9,3.48-5.76l1.23-2.21.3.41c.6.84,1.18,1.71,1.73,2.59s1.11,1.76,1.6,2.68.91,1.86,1.29,2.83L276,272a6.36,6.36,0,0,0,.38-3.73,9,9,0,0,0-1.24-3.15,9.19,9.19,0,0,0-2.27-2.43,10,10,0,0,0-1.15-.69l1-1.77c1-1.85,2-3.71,3-5.65.76-1.45,1.5-2.93,2.19-4.52a13.73,13.73,0,0,0,3.61,1,17.28,17.28,0,0,0,2.37.17c.78,0,1.56-.07,2.33-.17a27.66,27.66,0,0,0,4.46-1,22.51,22.51,0,0,0,2.14-.74c.38-.15.73-.3,1.1-.47,1.45.57,2.88,1.07,4.35,1.53a23,23,0,0,1,1.81,2.24,17.44,17.44,0,0,1,2.11,3.89l.34,1.05c.11.35.16.72.24,1.08a14.89,14.89,0,0,1,.29,2.2h.27a7.76,7.76,0,0,0,.89-5.06,11.53,11.53,0,0,0-1.66-4.29c.65.15,1.31.29,2,.41a34.07,34.07,0,0,0,6.18.59l1.61-.07c.53,0,1.08-.13,1.62-.2a12,12,0,0,0,1.64-.35,9.68,9.68,0,0,0,1.6-.53,23.49,23.49,0,0,0,5.41-3.23,42.11,42.11,0,0,0,4.49-4,59.4,59.4,0,0,0,6.93-8.46l.44,1.5c1,0,2,0,3,0s2,0,3-.05l3-.14,3-.26c1-.07,2-.22,2.95-.35s2-.29,2.95-.47a41.77,41.77,0,0,0,5.89-1.44v-.27c-3.94,0-7.89.09-11.83.16Z" style="fill:#263238"></path><path d="M256.11,255.82a20.3,20.3,0,0,0,2.11-2.91,18.68,18.68,0,0,0,1.55-3.28,14.17,14.17,0,0,0,.81-4l-.2-.18a40,40,0,0,0-4.48,6.11,35.85,35.85,0,0,0-1.75,3.37,23.33,23.33,0,0,0-1.31,3.56l.26.08A17.36,17.36,0,0,0,256.11,255.82Z" style="fill:#263238"></path><path d="M287.59,306.61a17.13,17.13,0,0,0-1-4.65l.23-.11c.7-.41,1.46-.75,2.13-1.22a20.59,20.59,0,0,0,3.79-3.11c.6-.57,1.09-1.22,1.64-1.82s1-1.28,1.45-2a30.85,30.85,0,0,0,2.32-4.26c.34-.74.64-1.49.91-2.26.09-.24.17-.49.26-.73.9-.12,1.78-.26,2.67-.42,1.44-.26,2.86-.55,4.25-.93a63.39,63.39,0,0,0,8.23-2.71c.68-.29,1.31-.51,2-.86a17,17,0,0,0,2-1.07l1-.62.92-.7a7.85,7.85,0,0,0,.88-.76,8,8,0,0,0,.81-.83,11.33,11.33,0,0,0,1.88-2.86,13.48,13.48,0,0,0,8,2,18.12,18.12,0,0,0,4.38-.76,25.72,25.72,0,0,0,4-1.73,29.54,29.54,0,0,0,3.55-2.47,24.54,24.54,0,0,0,3-3,21.5,21.5,0,0,0,3.43-5.35l.28.2a12.3,12.3,0,0,0,6.52,2.05,14.66,14.66,0,0,0,6.46-1.31,12.41,12.41,0,0,0,5.11-3.92l-.14-.23a24.36,24.36,0,0,1-2.71,1.18,25.44,25.44,0,0,1-2.81.89,20.55,20.55,0,0,1-5.83.69,14,14,0,0,1-5.67-1.28c-.19-.09-.36-.2-.55-.29l-.16-.11h0a12.14,12.14,0,0,1-1.77-1.14,15.16,15.16,0,0,1-2.16-2l-.21.17a9.21,9.21,0,0,0,2.92,4.52c-.43.51-.88,1-1.33,1.51-.9,1-1.84,1.93-2.83,2.83a34.06,34.06,0,0,1-6.44,4.7,22.48,22.48,0,0,1-7.43,2.73,18.78,18.78,0,0,1-7.5-.29c.1-.25.2-.5.28-.75a8.26,8.26,0,0,0,.2-4.43l-.27,0a8.48,8.48,0,0,1-.75,4,10.17,10.17,0,0,1-2.45,3.33,19.26,19.26,0,0,1-7.33,3.88,81.09,81.09,0,0,1-8.11,2.24,64.73,64.73,0,0,1-8.29,1.33h-.19l-.05.2a28.77,28.77,0,0,1-3.5,8.14,23.26,23.26,0,0,1-6,6.52,26.65,26.65,0,0,1-8,3.87,19.19,19.19,0,0,1-4.39.73,10.84,10.84,0,0,1-4.35-.61l-.12.25a10.4,10.4,0,0,0,4.51,1.29,18.86,18.86,0,0,0,4.74-.26,29.14,29.14,0,0,0,4.57-1.33c.33-.13.65-.27,1-.42,0,.35,0,.69,0,1,0,1-.08,2-.16,3a42.81,42.81,0,0,1-.91,6,33.33,33.33,0,0,1-1.77,5.76l-.61,1.37c-.21.46-.47.89-.7,1.34a27.16,27.16,0,0,1-1.57,2.57l.21.16a12.92,12.92,0,0,0,4.65-4.61,19.46,19.46,0,0,0,2.42-6A20.82,20.82,0,0,0,287.59,306.61Z" style="fill:#263238"></path><path d="M371.11,235.46a46.63,46.63,0,0,1,1.52,7.09,36.36,36.36,0,0,1,.38,7.22l-.11,1.81c-.07.6-.17,1.19-.26,1.79l-.12.9-.2.88-.4,1.77.26.08a16.75,16.75,0,0,0,3-7.12,23.7,23.7,0,0,0,.15-7.7,26.16,26.16,0,0,0-2.14-7.34,19.3,19.3,0,0,0-4.38-6.29l-.24.13c.52,1.08,1,2.21,1.4,3.35S370.76,234.31,371.11,235.46Z" style="fill:#263238"></path><path d="M376.54,275.3a20.63,20.63,0,0,0-1.25-6.32,15,15,0,0,0-3.37-5.57l-.25.1c.33,1,.61,1.93.85,2.92s.47,2,.66,3a40.75,40.75,0,0,1,.66,6,32.19,32.19,0,0,1-.25,6l-.23,1.49-.34,1.48-.16.74-.22.72-.45,1.45.25.1a13.4,13.4,0,0,0,3.28-5.68A19.39,19.39,0,0,0,376.54,275.3Z" style="fill:#263238"></path><path d="M367.06,286.78a6.87,6.87,0,0,0,1-4.54l-.25-.1a14.58,14.58,0,0,1-2.3,3.17,16,16,0,0,1-3,2.48,17.25,17.25,0,0,1-3.51,1.77,27.48,27.48,0,0,1-3.8,1.08l0,.27a8,8,0,0,0,2.24.67,9.49,9.49,0,0,0,2.26,0,8,8,0,0,0,1.07-.18c.31,1.11.57,2.25.78,3.39a39.41,39.41,0,0,1,.36,10.33,44.36,44.36,0,0,1-.88,5.11l.26.07a12.44,12.44,0,0,0,2.76-4.94,17.09,17.09,0,0,0-.37-11,13.88,13.88,0,0,0-1.84-3.32,10.92,10.92,0,0,0,2.09-1A9.72,9.72,0,0,0,367.06,286.78Z" style="fill:#263238"></path><path d="M372.45,296.23h-.27c.05,2.52,0,5.05-.17,7.57a46.86,46.86,0,0,1-1,7.48,14.25,14.25,0,0,1-1.22,3.52,5.3,5.3,0,0,1-2.51,2.5,7.25,7.25,0,0,1-5,.09,3.7,3.7,0,0,0,.07-.38l-.49.25a13,13,0,0,1-1.67-.69l-.3-.15,0,.33a11.09,11.09,0,0,1-.42,1.77l-.47.24.33.19a9.75,9.75,0,0,1-.89,1.84,6.83,6.83,0,0,1-3.23,2.75,17.32,17.32,0,0,1-4.22,1.14,26.29,26.29,0,0,1-3.43.28c.07-.41.14-.83.18-1.24a26.43,26.43,0,0,0-.17-7,25.63,25.63,0,0,0-1.88-6.53l-.27.06a35,35,0,0,1,.23,13,18.56,18.56,0,0,1-2.21,6.09,33.53,33.53,0,0,1-4.11,5.07c-1.48,1.6-3.06,3.13-4.63,4.67-.77.78-1.56,1.55-2.28,2.39a13.08,13.08,0,0,0-1.93,2.73,6.44,6.44,0,0,0-.7,3.28,5.5,5.5,0,0,0,1.26,3.1,9.19,9.19,0,0,0,2.57,2.12,13.38,13.38,0,0,0,3.06,1.31l.07-.26a12.23,12.23,0,0,1-4.59-4.06,4.15,4.15,0,0,1,.23-4.53,25.16,25.16,0,0,1,4.09-4.27c1.6-1.46,3.24-3,4.82-4.64.77-.84,1.52-1.71,2.24-2.6a21.2,21.2,0,0,0,2.1-3,19.2,19.2,0,0,0,1.85-5.26,18.66,18.66,0,0,0,3.67.4,15.77,15.77,0,0,0,4.75-.65,6.85,6.85,0,0,0,1.26-.48,9.05,9.05,0,0,0,3.15-2.71,10.12,10.12,0,0,0,1.21-2.14,14.67,14.67,0,0,0,1.82.46,8.42,8.42,0,0,0,5.07-.59,7.88,7.88,0,0,0,3.69-3.73,15.27,15.27,0,0,0,1.25-4.19,24.93,24.93,0,0,0,.38-4c0-.66,0-1.31,0-2l-.1-1.95A38.49,38.49,0,0,0,372.45,296.23Z" style="fill:#263238"></path><path d="M334.68,324.21a31.19,31.19,0,0,0-7.17-3.63,20.27,20.27,0,0,0-3.92-1,12.5,12.5,0,0,0-4,0,9.66,9.66,0,0,0-2,.57c-.31.14-.61.3-.91.45a6,6,0,0,0-.89.5,13.82,13.82,0,0,0-1.65,1.19c-.26.21-.53.41-.78.64l-.73.7a27.75,27.75,0,0,0-4.82,6.47q-.53,1-1,2.07l-.13-.11a14.65,14.65,0,0,0-3.47.78,17.54,17.54,0,0,0-2.65,1.22,17.76,17.76,0,0,0-2.31,1.53c-.78.58-1.55,1.2-2.64,2.14l0,.27a10,10,0,0,0,3.27-.33,15.75,15.75,0,0,0,3-1.26,19.73,19.73,0,0,0,4.82-4,25,25,0,0,0-1.62,5.28c-.14.66-.19,1.34-.28,2s0,1.36-.07,2,.08,1.35.13,2,.15,1.34.26,2a46.27,46.27,0,0,0,5.44,15.07l.23-.14a66.31,66.31,0,0,1-3.57-15.25c-.1-1.27-.12-2.52-.13-3.75.06-.59.08-1.17.15-1.76s.18-1.17.33-1.75a25.07,25.07,0,0,1,2.6-6.79,26.15,26.15,0,0,1,4.23-5.94,12.65,12.65,0,0,1,5.5-3.76,7.72,7.72,0,0,1,1.63-.26c.6,0,1.19,0,1.8,0a19.15,19.15,0,0,1,3.71.52,41.08,41.08,0,0,1,7.48,2.5Z" style="fill:#263238"></path><path d="M321.91,306.37c-.7,2.13-1.49,4.24-2.23,6.42s-1.57,4.35-2.34,6.76l.2.18a32.28,32.28,0,0,0,4-5.93,40.93,40.93,0,0,0,2.89-6.57,42.69,42.69,0,0,0,1.7-7c.22-1.18.3-2.37.42-3.56s.06-2.39.09-3.59h-.27c-1,2.37-1.62,4.61-2.36,6.8S322.61,304.23,321.91,306.37Z" style="fill:#263238"></path><path d="M255.84,359.75a9.72,9.72,0,0,0,4.12,3.41,10.11,10.11,0,0,0,2.69.72,12.08,12.08,0,0,0,2.76-.06,16.82,16.82,0,0,0,8.56-4.51,22,22,0,0,0,5.34-7.33l-.21-.18a44.47,44.47,0,0,1-6.41,5.78,24.57,24.57,0,0,1-3.66,2.24,18.63,18.63,0,0,1-2,.84,11.53,11.53,0,0,1-2.07.49,8,8,0,0,1-7.53-2.79,13.56,13.56,0,0,1-2.2-3.65A19.7,19.7,0,0,1,254,350.6l-.26,0a13.13,13.13,0,0,0,.16,4.63A12.32,12.32,0,0,0,255.84,359.75Z" style="fill:#263238"></path><path d="M260.67,385.7c4.46,1.3,8.6.44,12.27-.84a30.64,30.64,0,0,0,10-5.8l-.13-.24a51.61,51.61,0,0,1-10.38,4,29.79,29.79,0,0,1-5.46.91,14.58,14.58,0,0,1-5.43-.58,8.61,8.61,0,0,1-2.43-1.2L258,381.1l-1-1a18.31,18.31,0,0,1-3.09-4.54,29,29,0,0,1-2.66-10.72H251a20.55,20.55,0,0,0-.3,5.81,21.78,21.78,0,0,0,1.31,5.81,20.42,20.42,0,0,0,1.83,3.57,11.85,11.85,0,0,0-.64,6.1,13.8,13.8,0,0,0,1.35,4.16,14.41,14.41,0,0,0,2.63,3.55A14.78,14.78,0,0,0,273,396.76l0-.27a20.67,20.67,0,0,1-3.77-.12,20.94,20.94,0,0,1-3.69-.72,15.15,15.15,0,0,1-6.44-3.68l-.66-.66-.59-.73a13.52,13.52,0,0,1-1.07-1.53,14.42,14.42,0,0,1-1.49-3.42,15,15,0,0,1-.51-3.71c0-.19,0-.38,0-.57A13.33,13.33,0,0,0,260.67,385.7Z" style="fill:#263238"></path><path d="M316.43,381.4a4.76,4.76,0,0,1-.53-.19,7.15,7.15,0,0,1-1-.53,4,4,0,0,1-1.43-1.67,6.42,6.42,0,0,1-.45-2.53c0-.47.06-1,.11-1.45l.26-1.49-.25-.12-.6,1.4c-.15.49-.31,1-.43,1.47a7.56,7.56,0,0,0,0,3.07,5.53,5.53,0,0,0,1.57,2.65,7,7,0,0,0,2.44,1.46,6.09,6.09,0,0,1-2.38,2.37,11.27,11.27,0,0,1-3.44,1.25c-.59.15-1.22.18-1.82.27s-1.24.08-1.86.09-1.23,0-1.85,0l-1.86-.14h-.16l-.08.13a39,39,0,0,1-7,8,28,28,0,0,1-4.4,3,18.65,18.65,0,0,1-5,1.75l0,.27a14.88,14.88,0,0,0,5.57-.85,20.5,20.5,0,0,0,2.62-1.17,20.9,20.9,0,0,0,2.45-1.47,30,30,0,0,0,4.34-3.68c.66-.68,1.3-1.37,1.92-2.1.3-.37.58-.73.86-1.11l.6.06c.67.06,1.36.05,2,.05s1.38-.09,2.08-.14,1.39-.18,2.1-.37A12.19,12.19,0,0,0,315,387.9a10,10,0,0,0,1.85-1.55,7.84,7.84,0,0,0,.76-1c.11-.2.22-.38.33-.59a5.7,5.7,0,0,0,.32-.78l.89-2.67-2.23.2A1.87,1.87,0,0,1,316.43,381.4Z" style="fill:#263238"></path><path d="M295.36,376.2c-.47-.15-.94-.32-1.42-.44l-1.44-.33-.06.26a9.83,9.83,0,0,0,2.21,2.54,11.72,11.72,0,0,0,2.23,1.47,12,12,0,0,0,2.17.89c.35.12.74.22,1.12.36a2.82,2.82,0,0,1,1.27.81l.26.08a3.25,3.25,0,0,0-1.13-2.79,10.21,10.21,0,0,0-2.45-1.74A20.4,20.4,0,0,0,295.36,376.2Z" style="fill:#263238"></path><path d="M305.54,352.83a7.14,7.14,0,0,0,.06-4.55l-.26-.06a17.83,17.83,0,0,1-1.65,3.51,18.14,18.14,0,0,1-2.38,3.07,17.34,17.34,0,0,1-2.92,2.55,25.72,25.72,0,0,1-3.37,2l.1.25a7.83,7.83,0,0,0,4.49-.43,10.11,10.11,0,0,0,5.93-6.3Z" style="fill:#263238"></path><path d="M341.23,361.22a29.94,29.94,0,0,1-1.52,3.49,24.91,24.91,0,0,1-2,3.23,19.36,19.36,0,0,1-2.48,2.87l-.7.63-.76.58a16.66,16.66,0,0,1-1.56,1.08l.12.24a7.21,7.21,0,0,0,4.36-.94,10.07,10.07,0,0,0,3.2-2.88,10.49,10.49,0,0,0,1.76-3.84,8,8,0,0,0-.15-4.39Z" style="fill:#263238"></path><path d="M257.72,315.4a27.15,27.15,0,0,0,1.88,2l.2-.18a8.27,8.27,0,0,0-.43-3.2,8.37,8.37,0,0,0-1.28-2.38,8.28,8.28,0,0,0-2-1.83,7.9,7.9,0,0,0-3-1.18l-.22.15a50.15,50.15,0,0,0,3.1,4.52C256.53,314,257.12,314.71,257.72,315.4Z" style="fill:#263238"></path></g></svg>
